STARTFONT 2.1
COMMENT
COMMENT Converted from OpenType font "red_it.otf" by "otf2bdf 3.0".
COMMENT
FONT -FreeType-Redaction 20-Medium-I-Normal--46-460-72-72-P-272-ISO10646-1
SIZE 46 72 72
FONTBOUNDINGBOX 66 55 -12 -12
STARTPROPERTIES 19
FOUNDRY "FreeType"
FAMILY_NAME "Redaction 20"
WEIGHT_NAME "Medium"
SLANT "I"
SETWIDTH_NAME "Normal"
ADD_STYLE_NAME ""
PIXEL_SIZE 46
POINT_SIZE 460
RESOLUTION_X 72
RESOLUTION_Y 72
SPACING "P"
AVERAGE_WIDTH 272
CHARSET_REGISTRY "ISO10646"
CHARSET_ENCODING "1"
FONT_ASCENT 41
FONT_DESCENT 13
COPYRIGHT "© 2019 MCKL. All Rights Reserved."
_OTF_FONTFILE "red_it.otf"
_OTF_PSNAME "Redaction20-Italic"
ENDPROPERTIES
CHARS 346
STARTCHAR 0020
ENCODING 32
SWIDTH 239 0
DWIDTH 11 0
BBX 0 0 0 0
BITMAP
ENDCHAR
STARTCHAR 0021
ENCODING 33
SWIDTH 239 0
DWIDTH 11 0
BBX 16 32 -1 0
BITMAP
000F
001F
001F
003E
003E
003C
003C
0078
0078
0070
0070
00E0
00E0
00C0
01C0
0180
0100
0100
0200
0200
0000
0200
0000
0000
0000
0000
3E00
7E00
7E00
7C00
FC00
F800
ENDCHAR
STARTCHAR 0022
ENCODING 34
SWIDTH 391 0
DWIDTH 18 0
BBX 14 12 9 21
BITMAP
0810
3E7C
7EFC
7EFC
7CF8
78F0
70E0
60C0
60C0
C080
8100
8000
ENDCHAR
STARTCHAR 0023
ENCODING 35
SWIDTH 739 0
DWIDTH 34 0
BBX 34 32 2 0
BITMAP
0000100C00
0000300800
0000301800
0000601000
0000C02000
0000C02000
0001802000
0001806000
0001006000
000100C000
07FFFFFFC0
0002018000
0002018000
0006010000
0004030000
0008060000
0018040000
00100C0000
0030080000
0020180000
0060100000
FFFFFFF800
00C0200000
00C0600000
0180600000
0180C00000
0301800000
0601800000
0601000000
0C01000000
0C02000000
0802000000
ENDCHAR
STARTCHAR 0024
ENCODING 36
SWIDTH 500 0
DWIDTH 23 0
BBX 25 38 1 -3
BITMAP
00001800
00001800
00003000
00003000
000FF800
003FFE00
00F04780
00E0C780
01E08F80
01E08F80
03E08F80
03E10F00
03E10600
03E10000
03F10000
03FC0000
01FE0000
00FF0000
003FC000
001FE000
000FE000
0013F000
0019F000
0031F000
0030F000
3820F000
7860F000
F860F000
F840E000
F0C1C000
79838000
398F0000
1FFF0000
07FC0000
03000000
02000000
06000000
04000000
ENDCHAR
STARTCHAR 0025
ENCODING 37
SWIDTH 782 0
DWIDTH 36 0
BBX 27 32 6 0
BITMAP
01E00060
071800E0
0E1800C0
3C1C0100
381C0200
781C0600
701C0E00
F01C0C00
F01C1800
E0183000
E0386000
E030E000
E071C000
E0618000
E0E30000
778C1FC0
1F1C38E0
001870E0
0010E0E0
0021E0E0
0061C0E0
00C3C0E0
01C380E0
018381E0
030781E0
060781C0
18070180
38070380
30070300
60038600
C0039E00
8000F800
ENDCHAR
STARTCHAR 0026
ENCODING 38
SWIDTH 695 0
DWIDTH 32 0
BBX 33 32 1 0
BITMAP
0007FC0000
000F1E0000
001E0F0000
003C078000
007C078000
007C078000
007C0F0000
007C0F0000
007C1E0000
007C3C0000
007C700000
003EC00000
003F000000
003E000000
007F00FF80
079F003C00
0E1F003800
1C0F003000
380F807000
7807806000
7807C0C000
F807C18000
F803E38000
F803E70000
F801FE0000
F801FC0000
F800FC0000
F800FE0000
78009F0000
7C073FC800
1FFE3FF000
07F80FC000
ENDCHAR
STARTCHAR 0027
ENCODING 39
SWIDTH 239 0
DWIDTH 11 0
BBX 7 12 9 21
BITMAP
08
3E
7E
7E
7C
78
70
60
60
C0
80
80
ENDCHAR
STARTCHAR 0028
ENCODING 40
SWIDTH 413 0
DWIDTH 19 0
BBX 23 43 2 -10
BITMAP
00000E
000078
0001E0
0003C0
000E00
003E00
007C00
00FC00
00F800
01F000
03E000
07E000
07C000
0F8000
0F8000
0F0000
1E0000
3E0000
3C0000
3C0000
7C0000
780000
780000
780000
F80000
F00000
F00000
F00000
F00000
F00000
F00000
F00000
F00000
700000
700000
700000
300000
300000
180000
0C0000
0C0000
060000
010000
ENDCHAR
STARTCHAR 0029
ENCODING 41
SWIDTH 413 0
DWIDTH 19 0
BBX 23 43 -5 -10
BITMAP
000100
0000C0
000060
000070
000038
00001C
00001C
00001C
00001C
00001C
00001E
00001E
00001E
00001E
00001E
00001E
00001E
00001E
00003E
00003C
00003C
00003C
00007C
00007C
00007C
0000FC
0000F8
0001F0
0003F0
0003E0
0007C0
000FC0
000F80
001F00
001F00
001E00
003C00
007800
00E000
07C000
0F0000
3C0000
E00000
ENDCHAR
STARTCHAR 002A
ENCODING 42
SWIDTH 413 0
DWIDTH 19 0
BBX 19 18 5 14
BITMAP
000800
000800
001000
181000
1C3060
0E31E0
07AFC0
039E00
001800
071000
1F3000
7CD800
E18C00
018E00
010600
030000
060000
060000
ENDCHAR
STARTCHAR 002B
ENCODING 43
SWIDTH 521 0
DWIDTH 24 0
BBX 21 20 3 5
BITMAP
000200
000400
000400
000400
000C00
000C00
001800
001800
003000
7FFFF8
FFFFF8
006000
006000
00C000
00C000
008000
018000
018000
030000
030000
ENDCHAR
STARTCHAR 002C
ENCODING 44
SWIDTH 239 0
DWIDTH 11 0
BBX 8 12 -3 -6
BITMAP
0E
1F
3F
3F
3F
1B
06
06
0C
18
30
C0
ENDCHAR
STARTCHAR 002D
ENCODING 45
SWIDTH 413 0
DWIDTH 19 0
BBX 16 2 3 14
BITMAP
7FFF
FFFF
ENDCHAR
STARTCHAR 002E
ENCODING 46
SWIDTH 239 0
DWIDTH 11 0
BBX 7 6 -1 0
BITMAP
3E
7E
7C
7C
FC
F8
ENDCHAR
STARTCHAR 002F
ENCODING 47
SWIDTH 369 0
DWIDTH 17 0
BBX 36 43 -12 -11
BITMAP
0000000030
0000000060
0000000040
0000000180
0000000300
0000000600
0000000400
0000000800
0000000800
0000001800
0000003000
0000006000
0000004000
000000C000
0000018000
0000060000
00000C0000
00000C0000
0000180000
0000300000
0000200000
0000400000
0000400000
0000C00000
0001800000
0003000000
0004000000
000C000000
0018000000
0030000000
0060000000
00C0000000
0080000000
0180000000
0300000000
0200000000
0400000000
0400000000
1800000000
3000000000
6000000000
4000000000
C000000000
ENDCHAR
STARTCHAR 0030
ENCODING 48
SWIDTH 586 0
DWIDTH 27 0
BBX 25 32 3 0
BITMAP
0007F000
001FFC00
003C1E00
00F00F00
01E00F00
03E00780
07C00780
07800780
0F800780
1F000780
1F000F80
1E000F80
1E000F80
1C000F80
3C000F00
3C001F00
78001F00
78003E00
78003E00
70003E00
70007C00
F0007C00
F000F800
F000F000
7001F000
7001E000
7003C000
30078000
380F0000
1C1E0000
1FFC0000
07F00000
ENDCHAR
STARTCHAR 0031
ENCODING 49
SWIDTH 369 0
DWIDTH 17 0
BBX 20 32 -2 0
BITMAP
000070
000FF0
0007E0
0001E0
0001E0
0003E0
0003C0
0007C0
000780
000780
000F80
000F00
001F00
001F00
001E00
003C00
003C00
007C00
007800
00F800
00F000
00F000
00F000
00E000
00E000
01E000
03C000
038000
078000
0FC000
7FE000
FFF800
ENDCHAR
STARTCHAR 0032
ENCODING 50
SWIDTH 500 0
DWIDTH 23 0
BBX 28 32 -2 0
BITMAP
0003FF00
0007FF80
001E07C0
007803E0
007001F0
00F001F0
00F801F0
00F003F0
006003E0
000003E0
000007C0
000007C0
00000F80
00001F00
00001E00
00007800
0000F000
0001E000
0003C000
00078000
000F0000
001E0000
00380000
00F00000
00E00400
01C00C00
07001800
0E003000
1DFFF000
33FFE000
7FFFE000
FFFFE000
ENDCHAR
STARTCHAR 0033
ENCODING 51
SWIDTH 521 0
DWIDTH 24 0
BBX 28 32 1 0
BITMAP
003FFFF0
007FFFE0
007FFDC0
00C00700
01800E00
01001C00
03003800
0000E000
0000C000
00018000
00030000
00070000
000E0000
001F0000
003F8000
000FE000
0003F000
0001F000
0000F000
0000F000
0000F000
0000F000
0000F000
7800F000
F800F000
F800E000
E003C000
E0078000
F00F0000
781F0000
3FFE0000
1FF00000
ENDCHAR
STARTCHAR 0034
ENCODING 52
SWIDTH 586 0
DWIDTH 27 0
BBX 26 33 1 0
BITMAP
00000080
00003F80
00003F00
00003E00
00007C00
0000F800
0000F000
0001E000
0001C000
00038000
00070000
000E0000
001C0400
00381C00
00707800
00E07800
0300F040
0600F0C0
0400F380
1800EF80
3FFFFF00
7FFFFF00
FFFFFE00
00030000
00038000
00038000
00070000
000F0000
000F0000
000F0000
001F0000
007F0000
01FFC000
ENDCHAR
STARTCHAR 0035
ENCODING 53
SWIDTH 521 0
DWIDTH 24 0
BBX 29 35 0 0
BITMAP
00000018
00000010
00000070
000FFFE0
000FFFE0
000DFFC0
001A0000
00300000
00300000
00600000
00600000
00C00000
00C00000
01800000
01800000
03FF0000
03FFC000
03FFE000
0401F800
0000F800
00007800
00007C00
00007C00
00007C00
00007800
18007800
3C007800
7C007000
7C00F000
F001E000
7003C000
78078000
781F8000
1FFE0000
0FF80000
ENDCHAR
STARTCHAR 0036
ENCODING 54
SWIDTH 565 0
DWIDTH 26 0
BBX 25 32 3 0
BITMAP
0003F800
000FFE00
003C0F00
00F80780
01F00780
03E00780
03C00F80
07C00F80
0F800F00
0F800200
1F000000
1F000000
1E000000
1E3E0000
3CFF8000
3F03E000
7801F000
7801F000
7800F800
7800F800
F000F800
F000F800
F000F800
F000F000
7000F000
7001F000
7803E000
3803C000
3C038000
1C0F0000
1FFE0000
07FC0000
ENDCHAR
STARTCHAR 0037
ENCODING 55
SWIDTH 478 0
DWIDTH 22 0
BBX 27 33 2 -1
BITMAP
01FFFFE0
01FFFFC0
03FFFCC0
07800300
06000600
0C000C00
0C001C00
08003800
00003000
00006000
0000E000
0001C000
00018000
00030000
00070000
000E0000
001C0000
003C0000
00780000
00F00000
00E00000
01E00000
03C00000
07800000
0F800000
0F000000
1E000000
3E000000
3C000000
7C000000
7C000000
FC000000
F0000000
ENDCHAR
STARTCHAR 0038
ENCODING 56
SWIDTH 543 0
DWIDTH 25 0
BBX 26 32 1 0
BITMAP
0003F800
000F3E00
003E0F80
007003C0
00F003C0
00F003C0
01F003C0
01F003C0
01F003C0
01F00780
00F80F80
00FC0F00
00FE3E00
007F7800
000FE000
01FFC000
0787E000
0F03F000
1E01F800
3C00F800
3800F800
7800F800
7800F800
78007800
F8007800
F8007800
7800F000
7800E000
3801C000
1C078000
0FFF0000
07FE0000
ENDCHAR
STARTCHAR 0039
ENCODING 57
SWIDTH 543 0
DWIDTH 25 0
BBX 25 32 1 0
BITMAP
000FF000
003FF800
007C3C00
01E00F00
03E00F00
07C00F80
07800F80
07800780
07800780
07800780
07800F80
07800F80
07800F80
07800F80
07800F80
07E03F00
03F0EF00
01FF9E00
007F3E00
00003E00
00007C00
00007C00
0000F800
7800F800
7800F000
F801E000
F003C000
70078000
780F0000
383E0000
1FFC0000
0FF00000
ENDCHAR
STARTCHAR 003A
ENCODING 58
SWIDTH 239 0
DWIDTH 11 0
BBX 13 22 -1 0
BITMAP
00F8
01F8
01F0
01F0
01F0
0000
0000
0000
0000
0000
0000
0000
0000
0000
0000
0000
3E00
7E00
7E00
7C00
FC00
F800
ENDCHAR
STARTCHAR 003B
ENCODING 59
SWIDTH 239 0
DWIDTH 11 0
BBX 15 28 -3 -6
BITMAP
003E
007E
007C
007C
007C
0000
0000
0000
0000
0000
0000
0000
0000
0000
0000
0000
0600
1F00
1F80
1F80
1F80
1B00
0300
0600
0C00
1800
3000
C000
ENDCHAR
STARTCHAR 003D
ENCODING 61
SWIDTH 521 0
DWIDTH 24 0
BBX 23 8 2 10
BITMAP
1FFFFE
200000
000000
000000
000000
000000
FFFFF8
FFFFF0
ENDCHAR
STARTCHAR 003F
ENCODING 63
SWIDTH 434 0
DWIDTH 20 0
BBX 21 32 4 0
BITMAP
00FF80
03E7E0
0781F0
1E00F8
1E0078
3E0078
1C00F8
0000F8
0000F0
0001F0
0003E0
0007C0
000780
001F00
003E00
01F000
07C000
070000
0E0000
0C0000
0C0000
0C0000
000000
000000
000000
000000
3C0000
7C0000
780000
780000
F80000
F00000
ENDCHAR
STARTCHAR 0040
ENCODING 64
SWIDTH 760 0
DWIDTH 35 0
BBX 32 33 2 -6
BITMAP
0007FE00
003E07C0
00F000E0
01C00020
03800010
06000018
0C00000C
0800000C
1001F086
1007FF86
301E0F03
603C0F03
60781E03
60781E03
40F01C02
C1F03C02
C1E03C06
C1E07806
C1E07804
C1E0B00C
C1E1B018
61E2F030
61FE79E0
60FC3FC0
30000000
30000000
10000000
08000000
0C000000
06000000
03800300
00F03C00
003FE000
ENDCHAR
STARTCHAR 0041
ENCODING 65
SWIDTH 695 0
DWIDTH 32 0
BBX 33 34 -4 0
BITMAP
0000001000
0000001000
0000003000
0000007000
000000F000
000001F000
000003F000
000007F000
000007F000
000005F000
000008F800
000018F800
000018F800
000030F800
000060F800
0000E0F800
0001C0F800
000300F800
000700F800
000E00F800
000C00F800
001FFFF800
003FFFF800
0030003800
002000FC00
004000FC00
00C000FC00
01C0007C00
0300007C00
0700007C00
0F00007C00
1F0000FE00
7FC007FF00
FFC007FF80
ENDCHAR
STARTCHAR 0042
ENCODING 66
SWIDTH 630 0
DWIDTH 29 0
BBX 33 32 -3 0
BITMAP
001FFFF000
000FFFFC00
0003E03F00
0001F00F00
0003E00F80
0003E00780
0007E00780
0007C00780
0007C00780
000F800F00
000F800F00
000F801F00
001F003E00
001F007C00
003F03F000
003EFFE000
007C01F000
007C00F800
007C007C00
0078007E00
0078003E00
00F0003E00
00F0003E00
00F0007E00
01E0007E00
01E0007C00
03C001F800
03C003F000
078007E000
0F001FC000
FFFFFF0000
FFFFF80000
ENDCHAR
STARTCHAR 0043
ENCODING 67
SWIDTH 652 0
DWIDTH 30 0
BBX 32 32 3 0
BITMAP
0003FF00
000FFFC0
003F01C3
01F80076
03F00036
07E0003E
0FC0003C
0FC0003C
1F80001C
1F000018
1F000018
3E000018
3E000000
3C000000
7C000000
78000000
78000000
78000000
F8000000
F8000000
F8000000
78000000
78000000
78000000
7C000000
3C000000
1E000100
1F000600
1F800C00
07F07800
03FFE000
00FF8000
ENDCHAR
STARTCHAR 0044
ENCODING 68
SWIDTH 717 0
DWIDTH 33 0
BBX 37 32 -3 0
BITMAP
001FFFE000
000FFFFC00
0001E03F00
0001F00780
0001F003C0
0003E001E0
0003E001E0
0007E001F0
0007C000F0
0007C000F8
000F8000F8
000F8000F8
000F8000F8
001F0000F8
001F0000F8
003E0000F8
003E0000F0
007C0000F0
007C0001F0
007C0001E0
00780003E0
00780003C0
00F00007C0
00F0000780
00F0000F00
01E0001F00
03C0007C00
03C001F800
07C007E000
0F801F8000
7FFFFE0000
FFFFF00000
ENDCHAR
STARTCHAR 0045
ENCODING 69
SWIDTH 630 0
DWIDTH 29 0
BBX 37 32 -3 0
BITMAP
001FFFFFF8
000FFFFFF8
0003E001F0
0001F000F0
0003E000F0
0003E000E0
0007E000E0
0007C000E0
0007C000C0
000F8000C0
000F8060C0
000F806000
001F00C000
001F01C000
003F03C000
003FFF8000
007C078000
007C070000
007C070000
0078060000
0078060000
00F0060600
00F0000600
00F0000C00
01E0001C00
01E0001800
03C0007800
03C000F000
078003F000
0F000FE000
FFFFFFE000
FFFFFFC000
ENDCHAR
STARTCHAR 0046
ENCODING 70
SWIDTH 630 0
DWIDTH 29 0
BBX 37 32 -3 0
BITMAP
000FFFFFF8
000FFFFFF8
0001E000F8
0001F000F0
0001F00070
0003E00070
0003E00060
0007E00060
0007C00060
0007C000C0
000F8030C0
000F806000
000F806000
001F00C000
001F01C000
003FFF8000
0038078000
007C038000
007C030000
007C030000
0078030000
0078020000
00F0000000
00F0000000
00F0000000
01E0000000
01C0000000
03C0000000
07C0000000
0FC0000000
7FF8000000
FFFC000000
ENDCHAR
STARTCHAR 0047
ENCODING 71
SWIDTH 760 0
DWIDTH 35 0
BBX 32 32 4 0
BITMAP
0007FE00
001FFF80
007F03C7
03F80076
07E00076
0FC00036
0F80003C
1F80003C
3F00003C
3E000018
3E000018
3C000010
7C000000
78000000
F8000000
F8000000
F0001FFF
F0001FFE
F00003F0
F00003E0
F00003C0
F00003C0
F00003C0
F0000780
F8000780
78000780
3C000F80
3E000F00
1F807F00
0FE3FE00
07FFC600
01FE0200
ENDCHAR
STARTCHAR 0048
ENCODING 72
SWIDTH 760 0
DWIDTH 35 0
BBX 44 32 -3 0
BITMAP
001FFF80FFF0
000FFF00FFF0
0001F8003F80
0001F0003E00
0001F0003E00
0003E0003E00
0003E0007C00
0007E0007C00
0007C000F800
0007C000F800
000F8000F800
000F8000F000
000F8000F000
001F0001F000
001F0001E000
003FFFFFC000
00380000C000
007C0003C000
007C00078000
007C00078000
0078000F0000
0078000F0000
00F0000F0000
00F0001F0000
00F0001F0000
01E0003F0000
03C0003E0000
03C0007C0000
07C0007C0000
0FC000FE0000
7FF80FFF0000
FFFC0FFF8000
ENDCHAR
STARTCHAR 0049
ENCODING 73
SWIDTH 326 0
DWIDTH 15 0
BBX 25 32 -3 0
BITMAP
001FFF80
000FFF00
0003F000
0001F000
0003E000
0003E000
0007E000
0007C000
0007C000
000F8000
000F8000
000F8000
001F0000
001F0000
003E0000
003E0000
007C0000
007C0000
007C0000
00780000
00780000
00F00000
00F00000
00F00000
01E00000
01E00000
03C00000
03C00000
07C00000
0FC00000
FFF80000
FFF80000
ENDCHAR
STARTCHAR 004A
ENCODING 74
SWIDTH 565 0
DWIDTH 26 0
BBX 34 33 -1 -1
BITMAP
00000FFFC0
000007FF80
000001FC00
000001F800
000001F000
000001F000
000003E000
000003E000
000003E000
000007C000
000007C000
000007C000
00000F8000
00000F8000
00001F0000
00001F0000
00003E0000
00003E0000
00003C0000
00003C0000
00003C0000
0000780000
0000780000
3800F80000
7C00F00000
7C00F00000
F001E00000
7003C00000
7807C00000
3C1F800000
1FFF000000
07FC000000
01C0000000
ENDCHAR
STARTCHAR 004B
ENCODING 75
SWIDTH 717 0
DWIDTH 33 0
BBX 42 32 -3 0
BITMAP
001FFF80FFC0
000FFF00FFC0
0001F8007E00
0001F000E000
0001F000C000
0003E0030000
0003E0070000
0007C00E0000
0007C0380000
0007C0700000
000F80E00000
000F83800000
001F87000000
001F0E000000
001F1E000000
003E7F000000
003DDF000000
007B8F800000
007F0F800000
007C0F800000
00780FC00000
00780FC00000
00F007E00000
00F007E00000
01F007E00000
01E003F00000
03C003F80000
03C001F80000
07C001F80000
0FC001FC0000
7FF800FF0000
FFFC00FF0000
ENDCHAR
STARTCHAR 004C
ENCODING 76
SWIDTH 630 0
DWIDTH 29 0
BBX 32 32 -3 0
BITMAP
000FFF80
000FFF80
0001F800
0001F000
0001F000
0003E000
0003E000
0007E000
0007C000
0007C000
000F8000
000F8000
000F8000
001F0000
001F0000
003E0000
003E0000
007C0000
007C0000
007C0000
00780000
00780003
00F00006
00F0000E
00F0000C
01E0001C
01E00078
03C000F0
07C001F0
0F8007E0
7FFFFFE0
FFFFFFE0
ENDCHAR
STARTCHAR 004D
ENCODING 77
SWIDTH 891 0
DWIDTH 41 0
BBX 51 33 -3 -1
BITMAP
001FFC00003FE0
000FFC00007FE0
0003FC0000FE00
0001BC0001FC00
0003BC00033800
0003BC00077800
00033C000EF000
00073C000CF000
00063C0018F000
000E3C0031E000
000E3C0071E000
000C3C00E3E000
001C3C00C3E000
001C3C0083E000
00183C0187C000
00303C03078000
00703C060F8000
00703C0C0F8000
00603C1C1F0000
00603C381F0000
00403C301E0000
00C03C603E0000
00C03CE03E0000
00803DC07C0000
01803D807C0000
01803B007C0000
03803E00F80000
03803C00F80000
07803800F80000
0F803001F80000
FFE0301FFE0000
FFE0301FFF0000
00002000000000
ENDCHAR
STARTCHAR 004E
ENCODING 78
SWIDTH 739 0
DWIDTH 34 0
BBX 44 32 -3 0
BITMAP
000FE0007FF0
000FE0007FE0
0007E0000F80
0003F0000E00
0003F0000E00
0003F0000C00
0003F8001C00
0007F8001800
00067C001800
000E7C003800
000E3E003000
000C3E007000
001C1F007000
00181F006000
00180F80E000
00300FC0C000
00700FC0C000
007007E08000
006007E18000
006007F10000
004003F10000
004001F30000
00C001FB0000
008001F30000
018000FF0000
018000FE0000
0380007C0000
0380003C0000
0780003C0000
0F8000180000
7FE000180000
FFE000080000
ENDCHAR
STARTCHAR 004F
ENCODING 79
SWIDTH 739 0
DWIDTH 34 0
BBX 31 32 4 0
BITMAP
0007FF00
001FFF80
007C03C0
01F000F0
03E00078
07C00078
0F80007C
1F80007C
1F00007C
3E00007C
3E00007E
3E00007E
3C00007E
7C00007E
7800007E
F800007C
F800007C
F000007C
F0000078
F00000F8
F00000F0
F00001F0
F00001E0
F00003E0
F00003C0
78000780
38001F80
3C003F00
3E007C00
1F01F800
07FFE000
01FF8000
ENDCHAR
STARTCHAR 0050
ENCODING 80
SWIDTH 630 0
DWIDTH 29 0
BBX 34 32 -3 0
BITMAP
001FFFF800
000FFFFF00
0001E01F00
0001F007C0
0003F003C0
0003E003C0
0003E003C0
0007C003C0
0007C003C0
0007C007C0
000F800780
000F800780
001F000F00
001F001F00
001F003E00
003FFFF000
007FFF8000
0070000000
007C000000
0078000000
0078000000
0078000000
00F0000000
00F0000000
01F0000000
01E0000000
03C0000000
03C0000000
07C0000000
0FC0000000
FFF8000000
FFFC000000
ENDCHAR
STARTCHAR 0051
ENCODING 81
SWIDTH 739 0
DWIDTH 34 0
BBX 31 40 4 -8
BITMAP
0007FF00
001FFF80
007C03C0
01F000F0
03E00078
07C00078
0F80007C
1F80007C
1F00007C
3E00007C
3E00007E
3E00007E
3C00007E
7C00007E
7800007E
F800007C
F800007C
F000007C
F0000078
F00000F8
F00000F0
F00001F0
F07001E0
F1F803E0
F37C03C0
7E3C0780
381E1F80
3C1E3F00
3E1E7C00
1F0FF800
07EFE000
01EF8000
000F0000
000F8000
00078000
00078000
00078000
0007C000
0007FC00
0003F000
ENDCHAR
STARTCHAR 0052
ENCODING 82
SWIDTH 695 0
DWIDTH 32 0
BBX 34 33 -3 -1
BITMAP
001FFFF000
000FFFFE00
0001E03F00
0001F00780
0001F007C0
0003E007C0
0003E003C0
0007E003C0
0007C007C0
0007C00780
000F800780
000F800F00
000F801F00
001F003F00
001F007C00
003FFF8000
003807C000
007C03E000
007C03E000
007C03E000
007803F000
007801F000
00F001F000
00F001F000
00F001F000
01E001F000
03C001F000
03C001F800
07C001F800
0FC000F800
7FF800FF00
FFFC007E00
0000001000
ENDCHAR
STARTCHAR 0053
ENCODING 83
SWIDTH 543 0
DWIDTH 25 0
BBX 30 33 -1 -1
BITMAP
0007FC00
001FFF04
003E07BC
007801D8
00F000D8
00F000F8
01F000F0
01F000F0
01F00070
01F00060
01F80060
00FC0060
00FF0000
007F8000
003FC000
000FF800
0003FC00
0001FE00
0000FF00
00003F00
0C003F00
1C001F80
1C001F80
1C001F80
3C001F00
3C001F00
7E001E00
6E003E00
77003C00
E380F800
81FFE000
00FFC000
000C0000
ENDCHAR
STARTCHAR 0054
ENCODING 84
SWIDTH 630 0
DWIDTH 29 0
BBX 31 32 5 0
BITMAP
0FFFFFFE
0FFFFFFE
1FC3C07E
3C03E03C
3807E01C
7007C018
6007C018
600F8018
400F8010
000F0030
000F0000
000F0000
001E0000
001E0000
003C0000
003C0000
00780000
00780000
00F80000
00F00000
00F00000
01F00000
01F00000
03F00000
03E00000
03E00000
07C00000
0FC00000
0FC00000
1FC00000
FFF00000
FFF00000
ENDCHAR
STARTCHAR 0055
ENCODING 85
SWIDTH 760 0
DWIDTH 35 0
BBX 36 33 6 -1
BITMAP
3FFF00FFF0
1FFE007FE0
07E0001F00
07E0001C00
07C0001C00
07C0001800
0F80001800
0F80003800
0F80003000
1F00003000
1F00007000
1F00006000
3E00006000
3E0000E000
3E0000C000
7C0001C000
FC00018000
F800018000
F800018000
F800010000
F000030000
F000030000
F000020000
F000060000
F000060000
F0000E0000
F800380000
FC00780000
FE01F00000
7FCFE00000
1FFF800000
0FFE000000
0060000000
ENDCHAR
STARTCHAR 0056
ENCODING 86
SWIDTH 695 0
DWIDTH 32 0
BBX 32 33 8 -1
BITMAP
FFE003FF
FFC003FF
3F00007C
3F000060
1F0000E0
1F0001C0
1F000180
1F000300
1F000600
1F000600
1F000C00
1F000800
1F001800
1F003800
1F007000
1F00C000
1F01C000
1F038000
0F830000
0F860000
0F8E0000
0F9C0000
0F980000
0FB00000
0FF00000
0F600000
0F800000
0F800000
0F800000
0F000000
0E000000
04000000
04000000
ENDCHAR
STARTCHAR 0057
ENCODING 87
SWIDTH 1000 0
DWIDTH 46 0
BBX 45 34 8 -2
BITMAP
FFE0FFE00FF8
7FE07FE00FF8
3F803F0003F0
1F001E000380
1F001E000380
1F001E000700
1F001E000600
1F001E000C00
1F001E001C00
1F001E003800
1F001E003000
1F801E007000
1F803E00E000
1F807E00C000
1F806E008000
0F81CE030000
0F818E030000
0F830E070000
0F860E0E0000
0F8E0E1C0000
0F8C0E180000
0F980E380000
0FB00E700000
0FF00E600000
0FE00EC00000
0F400DC00000
0F800F000000
0F800F000000
0F000E000000
0F000C000000
0E0008000000
0C0008000000
080008000000
080000000000
ENDCHAR
STARTCHAR 0058
ENCODING 88
SWIDTH 695 0
DWIDTH 32 0
BBX 42 32 -4 0
BITMAP
0007FFC07FC0
0003FF807FC0
0000FC003E00
00007C007000
00007C006000
00003E00C000
00003E038000
00003E070000
00003E0E0000
00001E1C0000
00001F380000
00001E700000
00000CE00000
00000FC00000
00000F800000
00000F800000
00001BC00000
00003BC00000
000077C00000
0000E7C00000
0001C7E00000
000787E00000
000F07E00000
001C03E00000
003803F00000
003003F00000
00C001F00000
01C001F80000
078001F80000
0F8003FC0000
7FC00FFF0000
FFC00FFF8000
ENDCHAR
STARTCHAR 0059
ENCODING 89
SWIDTH 695 0
DWIDTH 32 0
BBX 34 32 6 0
BITMAP
3FFC01FFC0
1FF801FF80
0FE0003E00
07E0007800
07E0007000
03E000E000
03E0018000
03E0010000
03E0020000
01E0060000
01E00C0000
01E0180000
00F0300000
00F0E00000
00F1C00000
0077000000
006E000000
007C000000
007C000000
0078000000
0078000000
00F0000000
00F0000000
00F0000000
01E0000000
01E0000000
03E0000000
03E0000000
07E0000000
0FE0000000
FFF8000000
FFF8000000
ENDCHAR
STARTCHAR 005A
ENCODING 90
SWIDTH 608 0
DWIDTH 28 0
BBX 35 32 -2 0
BITMAP
000FFFFFE0
001FFFFFC0
001FC00380
003E001F00
003C003E00
0038007E00
007000FC00
006001F800
00E003F000
00C007E000
00800FC000
00001F8000
00001F0000
00003E0000
00007C0000
0001F00000
0003E00000
0007E00000
000FC00000
001F800000
003F000000
007E001800
00FC001800
00F8003000
00F0007000
01F0006000
07C001C000
0F8003C000
1F000F8000
3C001F8000
7FFFFF0000
FFFFFF0000
ENDCHAR
STARTCHAR 005B
ENCODING 91
SWIDTH 369 0
DWIDTH 17 0
BBX 28 43 -5 -9
BITMAP
00007FF0
0000FFF0
0000E000
0000F000
0001F000
0001E000
0003E000
0003E000
0007C000
0007C000
00078000
000F8000
000F8000
001F0000
001F0000
001E0000
001E0000
003C0000
003C0000
003C0000
00780000
00780000
00700000
00F00000
00F00000
01E00000
01E00000
01E00000
03E00000
07C00000
07C00000
07C00000
0F800000
0F800000
0F000000
1F000000
1F000000
3E000000
3E000000
3E000000
7C000000
F0000000
FFF00000
ENDCHAR
STARTCHAR 005C
ENCODING 92
SWIDTH 369 0
DWIDTH 17 0
BBX 7 43 7 -11
BITMAP
C0
C0
C0
C0
40
40
40
40
60
60
60
60
60
60
20
20
30
30
30
30
30
30
10
10
10
18
18
18
18
18
08
08
08
08
0C
0C
0C
0C
0C
04
04
04
06
ENDCHAR
STARTCHAR 005D
ENCODING 93
SWIDTH 369 0
DWIDTH 17 0
BBX 28 43 -6 -9
BITMAP
00007FF0
0000FFF0
000000E0
000001E0
000001E0
000003C0
000003C0
00000780
00000780
00000700
00000F00
00000F00
00001E00
00001E00
00001E00
00003E00
00003E00
00007C00
00007C00
0000F800
0000F800
0000F000
0001F000
0001F000
0003E000
0003E000
0003C000
0007C000
00078000
000F8000
000F8000
000F0000
000F0000
000E0000
001E0000
001E0000
003C0000
003C0000
003C0000
00780000
00700000
00300000
FFF00000
ENDCHAR
STARTCHAR 005E
ENCODING 94
SWIDTH 565 0
DWIDTH 26 0
BBX 21 15 5 17
BITMAP
000380
000780
000FC0
0018C0
0030C0
0070E0
00E060
01C060
038060
070070
0E0030
1C0030
380038
700038
E00018
ENDCHAR
STARTCHAR 005F
ENCODING 95
SWIDTH 434 0
DWIDTH 20 0
BBX 20 1 -6 -7
BITMAP
FFFFF0
ENDCHAR
STARTCHAR 0060
ENCODING 96
SWIDTH 500 0
DWIDTH 23 0
BBX 8 8 11 25
BITMAP
E0
F0
F8
FC
1C
06
03
01
ENDCHAR
STARTCHAR 0061
ENCODING 97
SWIDTH 543 0
DWIDTH 25 0
BBX 23 22 1 0
BITMAP
000F00
007FEE
01F0FE
03C07C
07807C
0E0078
1E00F8
1C00F0
3800F0
3800E0
7800E0
7801E0
F801C0
F803C0
F80380
F80580
F81B04
F83708
F86718
7FCFF0
3F8FC0
1F0780
ENDCHAR
STARTCHAR 0062
ENCODING 98
SWIDTH 543 0
DWIDTH 25 0
BBX 23 33 1 0
BITMAP
000600
00FE00
00FE00
007C00
007C00
007800
007800
00F800
00F000
01F000
01E000
01E0E0
03E3F8
03C7FC
07CE7C
07987E
07603E
06C03E
07803E
0D003E
0E003E
1E003C
1E007C
1C007C
3C00F8
3800F8
7800F0
7801E0
F803C0
F00780
F81F00
3FFE00
0FF800
ENDCHAR
STARTCHAR 0063
ENCODING 99
SWIDTH 413 0
DWIDTH 19 0
BBX 18 22 2 0
BITMAP
007E00
01FF00
07C380
0F01C0
0E01C0
1C03C0
380380
380100
700000
700000
F00000
F00000
F00000
F00000
F00000
F00000
F00000
F80200
7C0C00
7FF800
3FF000
0FE000
ENDCHAR
STARTCHAR 0064
ENCODING 100
SWIDTH 565 0
DWIDTH 26 0
BBX 28 33 1 0
BITMAP
00000010
000007F0
000003F0
000001F0
000001E0
000003E0
000003C0
000003C0
000007C0
00000780
00000F80
001F0F00
007FCF00
01F0FF00
03E07E00
07803E00
0F003C00
1E007C00
1C007800
3C00F800
3800F000
7800F000
7800F000
F800E000
F801E000
F801C000
F802C000
F80D8200
F81B8400
78338800
7FE7F800
3FC7E000
1F03C000
ENDCHAR
STARTCHAR 0065
ENCODING 101
SWIDTH 413 0
DWIDTH 19 0
BBX 19 22 1 0
BITMAP
003F00
00FF80
03C1C0
0780E0
0700E0
1E01C0
1C0380
3C0700
381F00
7BFC00
7FC000
700000
780000
780000
F80000
F80000
780000
7C0100
3E0600
3FFC00
1FF800
07F000
ENDCHAR
STARTCHAR 0066
ENCODING 102
SWIDTH 326 0
DWIDTH 15 0
BBX 34 44 -10 -11
BITMAP
0000001800
0000007F80
000000E3C0
000001C1C0
00000787C0
0000070380
00000F0000
00000F0000
00001E0000
00001E0000
00003E0000
0001FFF000
0001FFE000
00007C0000
0000780000
0000F80000
0000F00000
0000F00000
0000E00000
0001E00000
0001E00000
0001C00000
0003C00000
0003800000
0003800000
0007800000
0007000000
000F000000
000F000000
001F000000
001E000000
001E000000
003E000000
003C000000
003C000000
0078000000
0078000000
0078000000
20F0000000
F1E0000000
E3C0000000
E780000000
7F00000000
0800000000
ENDCHAR
STARTCHAR 0067
ENCODING 103
SWIDTH 456 0
DWIDTH 21 0
BBX 29 34 -4 -11
BITMAP
000001F8
0007E3B8
003FFE78
003C3C78
00781C70
00F00E00
01E00F00
01C00F00
01C00F00
03C00F00
03C00F00
01C00E00
01C01E00
01E03C00
00E07800
0079F800
007FE000
03800000
07000000
0F000000
0F800000
0FFC0000
0FFFF000
07FFF800
03FFFC00
0E3FFE00
3C01FE00
78001E00
70000E00
F0001800
F8003800
7E01F000
1FFFE000
03FE0000
ENDCHAR
STARTCHAR 0068
ENCODING 104
SWIDTH 543 0
DWIDTH 25 0
BBX 24 33 0 0
BITMAP
000180
007F00
007F00
001F00
001E00
003E00
003C00
007C00
007800
007800
00F800
00F078
01F0FE
01E3FE
01E71E
03EC1E
03B03E
03203C
03407C
078078
078078
070078
0E0070
0E00F0
1E00E0
1C00E0
1C01E0
3C03C1
7C0382
78038C
7803F8
F803F0
F003C0
ENDCHAR
STARTCHAR 0069
ENCODING 105
SWIDTH 282 0
DWIDTH 13 0
BBX 16 31 1 0
BITMAP
001F
003E
007C
007C
0000
0000
0000
0000
0000
00E0
0FE0
07E0
07C0
07C0
0780
0700
0700
0F00
0E00
0E00
1E00
1C00
3C00
3800
3800
7840
F880
F900
FE00
FC00
7800
ENDCHAR
STARTCHAR 006A
ENCODING 106
SWIDTH 260 0
DWIDTH 12 0
BBX 27 42 -10 -11
BITMAP
000003E0
000007C0
00000780
00000F80
00000000
00000000
00000000
00000000
00000000
00001E00
0001FC00
0000FC00
0000F800
0000F800
0000F000
0000F000
0000E000
0000E000
0001E000
0001C000
0003C000
0003C000
00038000
00078000
00070000
000F0000
000F0000
001F0000
001E0000
001E0000
003E0000
003C0000
007C0000
00780000
00780000
00F80000
20F00000
F1E00000
E3C00000
E7800000
7F000000
1C000000
ENDCHAR
STARTCHAR 006B
ENCODING 107
SWIDTH 521 0
DWIDTH 24 0
BBX 25 33 0 0
BITMAP
00018000
007F8000
003F0000
001F0000
001E0000
003E0000
003C0000
003C0000
007C0000
00780000
00F80000
00F00F00
00F03F80
01F07F80
01E0C780
01E18700
03C60000
03CC0000
039C0000
039E0000
073E0000
077F0000
0EDF0000
0D9F0000
0F1F0000
1E0F8000
1C0F8000
3C078000
3C078400
7C078800
7807F000
7803E000
F801C000
ENDCHAR
STARTCHAR 006C
ENCODING 108
SWIDTH 282 0
DWIDTH 13 0
BBX 16 33 1 0
BITMAP
0003
00FF
00FE
003E
003C
007C
0078
0078
00F0
00F0
01F0
01E0
01E0
03C0
03C0
07C0
0780
0700
0700
0F00
0E00
0E00
1C00
1C00
3C00
3800
3800
7840
F880
F900
FE00
FC00
7800
ENDCHAR
STARTCHAR 006D
ENCODING 109
SWIDTH 804 0
DWIDTH 37 0
BBX 36 22 0 0
BITMAP
0070780780
07F0FC0FE0
03F3FE1FE0
03E73E73E0
03EC3E61E0
03B03D83E0
03A03B03C0
03407E07C0
07C07C0780
0780780780
0700700780
0F00700700
0E00F00F00
0E00E00E00
1E00E00E00
1C01C01E00
3C03C03C10
3C03803820
7C038038C0
7807803F80
F807803F00
F00F803C00
ENDCHAR
STARTCHAR 006E
ENCODING 110
SWIDTH 565 0
DWIDTH 26 0
BBX 24 22 0 0
BITMAP
00787C
07F0FE
03F1FF
01F31F
01E61F
03D81E
03B03E
03E03C
03403C
03807C
078078
070078
0F0070
0E0070
0E00F0
1E00E0
3C01C1
3C01C2
3C03C4
7C03FC
7803F0
F801E0
ENDCHAR
STARTCHAR 006F
ENCODING 111
SWIDTH 500 0
DWIDTH 23 0
BBX 21 22 1 0
BITMAP
003F00
00FF80
03E1C0
07C0E0
0700F0
1E00F0
1C00F0
3C00F8
3C00F8
7800F0
7800F0
7800F0
7800F0
F800E0
F801E0
F801E0
780380
780700
780F00
381E00
1FFC00
07F000
ENDCHAR
STARTCHAR 0070
ENCODING 112
SWIDTH 565 0
DWIDTH 26 0
BBX 32 33 -7 -11
BITMAP
0000F0F0
000FE1FC
0007E7FC
0007CE3E
0003DC1F
0007201F
0007601F
0007C01F
0006801F
0007001F
000F001E
000E003E
001E003E
001C003C
001C007C
003C0078
007800F0
007801E0
007803C0
00FE0F80
00F7FF00
01F1FC00
01F00000
01E00000
03E00000
03C00000
03C00000
07C00000
0F800000
0F800000
1F800000
7FF00000
FFF00000
ENDCHAR
STARTCHAR 0071
ENCODING 113
SWIDTH 543 0
DWIDTH 25 0
BBX 24 33 1 -11
BITMAP
001F81
007FE7
01F0FE
03E07E
07803E
0F007C
1E007C
1C0078
3C00F8
3800F0
7800F0
7800F0
7800E0
F801E0
F803C0
F802C0
F80D80
F81B80
787700
7FE700
3FCF00
1F0F00
001F00
001E00
001E00
003E00
003C00
003C00
007800
00F800
01FC00
07FF00
07FF00
ENDCHAR
STARTCHAR 0072
ENCODING 114
SWIDTH 413 0
DWIDTH 19 0
BBX 21 22 0 0
BITMAP
007060
07F1F8
03F3F8
03E678
03EC78
03B070
032000
034000
07C000
078000
070000
0F0000
0E0000
0E0000
1E0000
1C0000
3C0000
3C0000
7C0000
780000
F80000
F00000
ENDCHAR
STARTCHAR 0073
ENCODING 115
SWIDTH 369 0
DWIDTH 17 0
BBX 17 22 0 0
BITMAP
00F800
03FF00
038780
060380
0E0380
0E0780
0F0380
0F0000
07C000
07C000
03E000
03F000
01F800
00FC00
007C00
603E00
F03E00
E03C00
E03C00
F07800
79F000
1FE000
ENDCHAR
STARTCHAR 0074
ENCODING 116
SWIDTH 347 0
DWIDTH 16 0
BBX 16 28 2 0
BITMAP
0008
0018
0070
00F0
01E0
03E0
0FFF
1FFF
0700
07C0
0780
0F00
0F00
0F00
0E00
1E00
1C00
1C00
3C00
3800
7800
7800
F000
F040
F980
FF00
FE00
7C00
ENDCHAR
STARTCHAR 0075
ENCODING 117
SWIDTH 543 0
DWIDTH 25 0
BBX 23 22 2 -1
BITMAP
01E03E
1FC03C
0FC07C
07C078
078078
0F00F0
0F01F0
0E01E0
0E01E0
1E01E0
1C01C0
1C01C0
380380
380780
780F80
700B00
F03608
F06E10
F0DE30
F39FE0
FF1FC0
7C0F00
ENDCHAR
STARTCHAR 0076
ENCODING 118
SWIDTH 500 0
DWIDTH 23 0
BBX 19 23 4 -1
BITMAP
3801C0
FC03E0
7C03E0
3C03E0
3C00E0
3C00E0
3C00C0
3C01C0
3C0180
3C0380
3C0300
3C0700
3C0600
3C0400
3C0800
3C1800
3C6000
3DC000
3B8000
3F0000
3C0000
380000
200000
ENDCHAR
STARTCHAR 0077
ENCODING 119
SWIDTH 695 0
DWIDTH 32 0
BBX 27 23 5 -1
BITMAP
300600C0
F83E01C0
F81E03E0
780E01E0
780E00E0
780F00C0
780F00C0
780F0080
780F0080
780F0100
780F0100
780F0300
781E0700
783E0600
782E0C00
786E1800
798E6000
770EC000
6E1D8000
781F0000
701E0000
60180000
00100000
ENDCHAR
STARTCHAR 0078
ENCODING 120
SWIDTH 500 0
DWIDTH 23 0
BBX 25 22 -1 0
BITMAP
00E00F00
07F03F00
01F03F80
01F06F00
01F84F00
00F98000
00F90000
007A0000
00760000
007C0000
003E0000
003E0000
003E0000
006F0000
004F0000
00DF8000
010F8000
7107C200
F607C400
FE07F800
FC03F000
F801E000
ENDCHAR
STARTCHAR 0079
ENCODING 121
SWIDTH 521 0
DWIDTH 24 0
BBX 29 32 -6 -10
BITMAP
00060070
001F00F8
001F00F8
000F00F8
000F0038
000F8038
000F8038
000F8070
000F8070
000F8070
000780E0
000780E0
0007C1C0
0007C180
0007C180
0007C100
0007C600
0007C600
0003CC00
0003DC00
0003B800
0003F000
0003E000
0003C000
00038000
00070000
000E0000
200C0000
F8300000
F8F00000
F7C00000
7F000000
ENDCHAR
STARTCHAR 007A
ENCODING 122
SWIDTH 413 0
DWIDTH 19 0
BBX 24 23 -3 -1
BITMAP
007FFF
007FFE
00FFFC
00FFD8
01C030
0300E0
0601C0
000380
000700
000E00
001C00
003800
007000
006000
00C000
018000
070010
0EE030
1FFCE0
3FFFE0
7CFFC0
E03F80
400600
ENDCHAR
STARTCHAR 007B
ENCODING 123
SWIDTH 391 0
DWIDTH 18 0
BBX 24 44 1 -10
BITMAP
0000FF
0003C0
000780
000F00
000F00
001F00
001F00
003F00
003E00
003E00
003E00
003E00
003E00
003E00
003E00
003C00
007C00
00F800
01F000
03E000
078000
7E0000
000000
060000
070000
078000
078000
078000
0F8000
1F0000
1F0000
3E0000
7C0000
780000
F80000
F80000
F80000
F00000
F00000
F00000
700000
380000
0E0000
020000
ENDCHAR
STARTCHAR 007C
ENCODING 124
SWIDTH 369 0
DWIDTH 17 0
BBX 17 43 0 -11
BITMAP
000180
000180
000100
000300
000200
000600
000600
000C00
000C00
000800
001800
001800
001000
003000
003000
006000
006000
004000
00C000
008000
018000
018000
010000
030000
030000
020000
020000
040000
040000
040000
0C0000
0C0000
080000
180000
180000
100000
300000
300000
600000
400000
C00000
C00000
800000
ENDCHAR
STARTCHAR 007D
ENCODING 125
SWIDTH 391 0
DWIDTH 18 0
BBX 24 44 -6 -10
BITMAP
0000F0
00001C
00000E
000006
000007
000007
00000F
00000F
00001F
00003E
00007E
00007E
0000FC
0000FC
0001F8
0001F0
0001E0
0001E0
0000E0
0000E0
000060
00003E
0001F0
0003C0
000F80
000F00
000E00
001E00
003C00
003C00
003C00
007C00
007C00
007C00
007C00
007800
007800
007800
007800
007000
01F000
03E000
FF8000
FE0000
ENDCHAR
STARTCHAR 007E
ENCODING 126
SWIDTH 565 0
DWIDTH 26 0
BBX 19 6 5 11
BITMAP
7FE020
7FF860
7FFFC0
81FF80
007F00
000E00
ENDCHAR
STARTCHAR 00A1
ENCODING 161
SWIDTH 239 0
DWIDTH 11 0
BBX 16 32 0 0
BITMAP
001F
003F
003E
007E
007C
0000
0000
0000
0000
0000
0040
0000
0080
0080
0180
0300
0300
0300
0200
0600
0600
0C00
0C00
1C00
1C00
3C00
7C00
7C00
F800
F800
F800
F000
ENDCHAR
STARTCHAR 00A2
ENCODING 162
SWIDTH 413 0
DWIDTH 19 0
BBX 18 31 2 -5
BITMAP
000100
000100
000200
000200
007E00
01FF00
07C780
0F0DC0
0E09C0
1C13C0
383380
382100
706000
704000
F0C000
F08000
F18000
F10000
F30000
F60000
FC0000
FC0200
780C00
7BF800
17F000
17E000
300000
300000
600000
600000
C00000
ENDCHAR
STARTCHAR 00A3
ENCODING 163
SWIDTH 543 0
DWIDTH 25 0
BBX 30 33 -2 -1
BITMAP
00003FC0
0000FFE0
0001E078
0007C03C
000F803C
000F80FC
000F80FC
001F80F8
001F8070
001F8000
001F8000
001F8000
001F0000
001F0000
001F0000
01FFFE00
00070000
001F0000
001F0000
001F0000
001E0000
001E0000
001E0000
001C0000
003C0000
00380000
7FF00300
40EE0E00
C0FFFC00
C0FFF800
611FF800
7F0FE000
08018000
ENDCHAR
STARTCHAR 00A5
ENCODING 165
SWIDTH 695 0
DWIDTH 32 0
BBX 34 32 6 0
BITMAP
3FFC01FFC0
1FF801FF80
0FE0003E00
07E0007800
07E0007000
03E000E000
03E0018000
03E0010000
03E0020000
01E0060000
01E00C0000
01E0180000
00F0300000
00F0600000
00F1C00000
007F000000
007E000000
007C000000
007C000000
7FFFFC0000
FFFFF80000
0078000000
FFFFF00000
FFFFF00000
0060000000
01E0000000
03E0000000
03E0000000
07E0000000
0FE0000000
FFF8000000
FFF8000000
ENDCHAR
STARTCHAR 00A7
ENCODING 167
SWIDTH 478 0
DWIDTH 22 0
BBX 24 36 1 -4
BITMAP
0007F0
001FFC
003C1E
00700F
00F01F
00F01F
00F01E
00F81C
00FC00
003E00
00FF00
03FF80
079FC0
0E0FE0
0C07F0
1C01F8
1C00F8
1E00F8
1F0078
1F8070
0FC0F0
07F0E0
07F9E0
03FF80
01FF00
00FC00
701F00
F81F00
F80F00
F80F00
E00E00
E01E00
703C00
7DF800
1FE000
070000
ENDCHAR
STARTCHAR 00A8
ENCODING 168
SWIDTH 500 0
DWIDTH 23 0
BBX 15 4 11 27
BITMAP
3C1E
7C3E
F87C
F87C
ENDCHAR
STARTCHAR 00A9
ENCODING 169
SWIDTH 782 0
DWIDTH 36 0
BBX 33 32 4 0
BITMAP
0007FF0000
001C078000
007000C000
0380003800
0600001C00
0C00000C00
1800F00600
1007FC0600
30078F0300
200E070300
401C038300
4038078100
4078078180
4078070180
C0F8060180
C0F0000100
C0F0000100
C0F0000300
C0F0000300
C0F8000200
C0F8000600
C078080600
C07C300C00
403FE00800
400FC01800
2000003000
3000004000
1800008000
0E00038000
07800F0000
01F07C0000
007FE00000
ENDCHAR
STARTCHAR 00AB
ENCODING 171
SWIDTH 565 0
DWIDTH 26 0
BBX 24 20 2 1
BITMAP
000201
000402
00180C
003018
01E0F0
03C1E0
0F83C0
0F0780
3E1F00
7C3E00
F87E00
703C00
783E00
381E00
180E00
080600
0C0600
0C0200
0C0200
040200
ENDCHAR
STARTCHAR 00AE
ENCODING 174
SWIDTH 565 0
DWIDTH 26 0
BBX 21 20 7 13
BITMAP
00FF00
0381C0
060060
0C0030
30FF98
206388
604388
404308
C0CE08
C0F808
C11C08
819C18
C18C18
C30C10
430E30
6FCF60
300180
180700
0F3C00
03F000
ENDCHAR
STARTCHAR 00AF
ENCODING 175
SWIDTH 500 0
DWIDTH 23 0
BBX 14 1 11 28
BITMAP
FFFC
ENDCHAR
STARTCHAR 00B0
ENCODING 176
SWIDTH 369 0
DWIDTH 17 0
BBX 15 14 7 18
BITMAP
07F0
1FF8
3C3C
700C
E00E
E00E
C00C
C00C
C01C
E038
E030
7070
7FC0
1FC0
ENDCHAR
STARTCHAR 00B2
ENCODING 178
SWIDTH 282 0
DWIDTH 13 0
BBX 16 17 2 15
BITMAP
00FE
0386
0707
0707
0606
000E
000E
001C
0038
00E0
01C0
0380
0604
0C08
0818
7FF0
FFE0
ENDCHAR
STARTCHAR 00B3
ENCODING 179
SWIDTH 304 0
DWIDTH 14 0
BBX 16 17 4 15
BITMAP
03FF
07FE
07F4
0838
0060
00C0
0180
03E0
07F0
00F0
0078
0078
6070
E070
C0E0
63C0
3F00
ENDCHAR
STARTCHAR 00B4
ENCODING 180
SWIDTH 500 0
DWIDTH 23 0
BBX 10 8 13 25
BITMAP
01C0
07C0
07C0
0FC0
1C00
3800
6000
C000
ENDCHAR
STARTCHAR 00B6
ENCODING 182
SWIDTH 630 0
DWIDTH 29 0
BBX 30 43 5 -11
BITMAP
003FFFFC
01FFFFFC
03FF81C0
1FFFC300
3FFFC300
3FFF8700
7FFF8700
7FFF8700
7FFF0E00
7FFF0E00
7FFE1C00
FFFE1C00
FFFE1C00
FFFC3800
FFFC3800
7FF87000
7FF87000
7FF0E000
3FF0E000
1FF0E000
07F1C000
01F1C000
00E38000
00E38000
00E38000
01C70000
01860000
038E0000
038E0000
070C0000
070C0000
070C0000
0E180000
0E180000
1C300000
1C300000
1C300000
38700000
30600000
70E00000
70E00000
61C00000
61C00000
ENDCHAR
STARTCHAR 00B7
ENCODING 183
SWIDTH 239 0
DWIDTH 11 0
BBX 7 5 4 14
BITMAP
3E
7E
7C
7C
FC
ENDCHAR
STARTCHAR 00B8
ENCODING 184
SWIDTH 500 0
DWIDTH 23 0
BBX 8 10 1 -9
BITMAP
06
04
08
1C
1E
1E
0F
06
8C
78
ENDCHAR
STARTCHAR 00B9
ENCODING 185
SWIDTH 195 0
DWIDTH 9 0
BBX 12 17 3 15
BITMAP
00F0
03E0
01E0
03C0
0380
0380
0780
0700
0F00
0F00
0E00
1E00
1C00
1C00
1C00
3C00
FE00
ENDCHAR
STARTCHAR 00BB
ENCODING 187
SWIDTH 565 0
DWIDTH 26 0
BBX 25 21 -1 0
BITMAP
00402000
00402000
00603000
00603000
00381C00
00381C00
003C1E00
003C1E00
003E1F00
003F1F80
007F3F80
007C3E00
00F83C00
01F07800
01C0E000
06038000
0E070000
180C0000
30180000
60300000
80400000
ENDCHAR
STARTCHAR 00BC
ENCODING 188
SWIDTH 630 0
DWIDTH 29 0
BBX 28 32 1 0
BITMAP
003C0030
00F80070
00780060
00700180
00F00300
00E00700
00E00E00
01E00C00
01C01800
01C03000
03C06000
0380E000
0780C000
07008000
07010000
0F060F00
3FCE0F00
001C1E00
00181800
00303000
00606100
00C0C600
01C08E00
01811C40
03061C80
060FFF80
083FFE00
18007000
18007000
30007000
6000F000
C001F800
ENDCHAR
STARTCHAR 00BD
ENCODING 189
SWIDTH 630 0
DWIDTH 29 0
BBX 28 32 1 0
BITMAP
003C0030
00FC0070
00780060
00700180
00700300
00F00700
00E00E00
01E00C00
01C01800
01C03000
03C06000
0380E000
0380C000
07008000
07010000
0F063FE0
3FCE60F0
000CE0F0
0018E0F0
0030E0F0
006001E0
00C001C0
01C00380
01800700
03000C00
06001800
0800E080
18008180
18010300
3003FE00
6007FE00
C00FFC00
ENDCHAR
STARTCHAR 00BE
ENCODING 190
SWIDTH 695 0
DWIDTH 32 0
BBX 27 32 5 0
BITMAP
07FE0060
07FC00E0
0FE800C0
10300100
00400300
01800700
03000E00
07C00C00
07E01800
00F03000
00F06000
00F0E000
C0F1C000
C0E18000
80E30000
C78C0F00
7E0C0F00
00181E00
00101800
00303000
00606100
00C0C600
01C18E00
01821C80
030C1D00
060FFF00
183FFE00
38007000
30007000
60007000
4000F000
8003F800
ENDCHAR
STARTCHAR 00BF
ENCODING 191
SWIDTH 434 0
DWIDTH 20 0
BBX 22 32 -1 0
BITMAP
00007C
000078
000078
0000F0
0001F0
000000
000000
000000
000000
000100
000080
0001C0
0001C0
000380
000780
007E00
00F800
01F000
07C000
0F8000
1E0000
3E0000
3C0000
7C0000
780000
7801C0
F803C0
7801C0
7C03C0
3C0780
1F3E00
07F800
ENDCHAR
STARTCHAR 00C0
ENCODING 192
SWIDTH 695 0
DWIDTH 32 0
BBX 33 43 -4 0
BITMAP
0000070000
0000078000
000007C000
000003F000
000000F000
0000003800
0000000C00
0000000400
0000000000
0000001000
0000001000
0000003000
0000007000
000000F000
000001F000
000003F000
000007F000
000007F000
000005F000
000008F800
000018F800
000018F800
000030F800
000060F800
0000E0F800
0001C0F800
000300F800
000700F800
000E00F800
000C00F800
001FFFF800
003FFFF800
0030003800
002000FC00
004000FC00
00C000FC00
01C0007C00
0300007C00
0700007C00
0F00007C00
1F0000FE00
7FC007FF00
FFC007FF80
ENDCHAR
STARTCHAR 00C1
ENCODING 193
SWIDTH 695 0
DWIDTH 32 0
BBX 33 43 -4 0
BITMAP
0000000180
0000000780
0000000780
0000001F00
0000003C00
0000007800
000000C000
0000018000
0000000000
0000001000
0000001000
0000003000
0000007000
000000F000
000001F000
000003F000
000007F000
000007F000
000005F000
000008F800
000018F800
000018F800
000030F800
000060F800
0000E0F800
0001C0F800
000300F800
000700F800
000E00F800
000C00F800
001FFFF800
003FFFF800
0030003800
002000FC00
004000FC00
00C000FC00
01C0007C00
0300007C00
0700007C00
0F00007C00
1F0000FE00
7FC007FF00
FFC007FF80
ENDCHAR
STARTCHAR 00C2
ENCODING 194
SWIDTH 695 0
DWIDTH 32 0
BBX 34 41 -4 0
BITMAP
0000001F80
0000007B80
000000E780
0000018380
00000200C0
0000040040
0000000000
0000001000
0000001000
0000003000
0000007000
000000F000
000001F000
000003F000
000007F000
000007F000
000005F000
000008F800
000018F800
000018F800
000030F800
000060F800
0000E0F800
0001C0F800
000300F800
000700F800
000E00F800
000C00F800
001FFFF800
003FFFF800
0030003800
002000FC00
004000FC00
00C000FC00
01C0007C00
0300007C00
0700007C00
0F00007C00
1F0000FE00
7FC007FF00
FFC007FF80
ENDCHAR
STARTCHAR 00C3
ENCODING 195
SWIDTH 695 0
DWIDTH 32 0
BBX 37 42 -4 0
BITMAP
0000006000
000001F808
000003FFE0
0000063FE0
0000040FC0
0000080780
0000000000
0000000000
0000001000
0000001000
0000003000
0000007000
000000F000
000001F000
000003F000
000007F000
000007F000
000005F000
000008F800
000018F800
000018F800
000030F800
000060F800
0000E0F800
0001C0F800
000300F800
000700F800
000E00F800
000C00F800
001FFFF800
003FFFF800
0030003800
002000FC00
004000FC00
00C000FC00
01C0007C00
0300007C00
0700007C00
0F00007C00
1F0000FE00
7FC007FF00
FFC007FF80
ENDCHAR
STARTCHAR 00C4
ENCODING 196
SWIDTH 695 0
DWIDTH 32 0
BBX 36 41 -4 0
BITMAP
000001E070
000003E0F0
000007C1E0
000007C1E0
0000000000
0000000000
0000000000
0000001000
0000001000
0000003000
0000007000
000000F000
000001F000
000003F000
000007F000
000007F000
000005F000
000008F800
000018F800
000018F800
000030F800
000060F800
0000E0F800
0001C0F800
000300F800
000700F800
000E00F800
000C00F800
001FFFF800
003FFFF800
0030003800
002000FC00
004000FC00
00C000FC00
01C0007C00
0300007C00
0700007C00
0F00007C00
1F0000FE00
7FC007FF00
FFC007FF80
ENDCHAR
STARTCHAR 00C5
ENCODING 197
SWIDTH 695 0
DWIDTH 32 0
BBX 33 43 -4 0
BITMAP
0000007C00
000000FF00
000000C300
0000018180
0000018380
0000018300
000000CF00
0000007E00
0000000000
0000001000
0000001000
0000003000
0000007000
000000F000
000001F000
000003F000
000007F000
000007F000
000005F000
000008F800
000018F800
000018F800
000030F800
000060F800
0000E0F800
0001C0F800
000300F800
000700F800
000E00F800
000C00F800
001FFFF800
003FFFF800
0030003800
002000FC00
004000FC00
00C000FC00
01C0007C00
0300007C00
0700007C00
0F00007C00
1F0000FE00
7FC007FF00
FFC007FF80
ENDCHAR
STARTCHAR 00C6
ENCODING 198
SWIDTH 1086 0
DWIDTH 50 0
BBX 57 32 -3 0
BITMAP
00000001FFFFFF80
00000000FFFFFF00
00000000FF001F00
00000000DE000600
00000001BE000600
000000033E000600
000000077C000600
0000000E7C000600
0000001CFC000600
00000038F8000600
00000070F8060400
000000E0F00C0000
000001C0F00C0000
00000301F01C0000
00000601E0380000
00000803FFF80000
00001003C0300000
00003003C0300000
0000600780300000
0000FFFF80200000
0001FFFF80200000
0003000F00206000
0006000F00004000
000C001F0000C000
0038001F00018000
0070003F00038000
00C0003E00070000
01C0007C000F0000
0380007C001E0000
0F8000F0007E0000
7FE00FFFFFFC0000
FFF00FFFFFFC0000
ENDCHAR
STARTCHAR 00C7
ENCODING 199
SWIDTH 652 0
DWIDTH 30 0
BBX 32 41 3 -9
BITMAP
0003FF00
000FFFC0
003F01C3
01F80076
03F00036
07E0003E
0FC0003C
0FC0003C
1F80001C
1F000018
1F000018
3E000018
3E000000
3C000000
7C000000
78000000
78000000
78000000
F8000000
F8000000
F8000000
78000000
78000000
78000000
7C000000
3C000000
1E000100
1F000600
1F800C00
07F07800
03FFE000
00FF8000
00300000
00600000
00D00000
00F80000
00F80000
007C0000
00380000
04700000
03E00000
ENDCHAR
STARTCHAR 00C8
ENCODING 200
SWIDTH 630 0
DWIDTH 29 0
BBX 37 43 -3 0
BITMAP
0000070000
0000078000
000007C000
000003F000
000000F000
0000003800
0000000C00
0000000400
0000000000
0000000000
0000000000
001FFFFFF8
000FFFFFF8
0003E001F0
0001F000F0
0003E000F0
0003E000E0
0007E000E0
0007C000E0
0007C000C0
000F8000C0
000F8060C0
000F806000
001F00C000
001F01C000
003F03C000
003FFF8000
007C078000
007C070000
007C070000
0078060000
0078060000
00F0060600
00F0000600
00F0000C00
01E0001C00
01E0001800
03C0007800
03C000F000
078003F000
0F000FE000
FFFFFFE000
FFFFFFC000
ENDCHAR
STARTCHAR 00C9
ENCODING 201
SWIDTH 630 0
DWIDTH 29 0
BBX 37 43 -3 0
BITMAP
0000000180
0000000780
0000000780
0000001F00
0000003C00
0000007800
000000C000
0000018000
0000000000
0000000000
0000000000
001FFFFFF8
000FFFFFF8
0003E001F0
0001F000F0
0003E000F0
0003E000E0
0007E000E0
0007C000E0
0007C000C0
000F8000C0
000F8060C0
000F806000
001F00C000
001F01C000
003F03C000
003FFF8000
007C078000
007C070000
007C070000
0078060000
0078060000
00F0060600
00F0000600
00F0000C00
01E0001C00
01E0001800
03C0007800
03C000F000
078003F000
0F000FE000
FFFFFFE000
FFFFFFC000
ENDCHAR
STARTCHAR 00CA
ENCODING 202
SWIDTH 630 0
DWIDTH 29 0
BBX 37 41 -3 0
BITMAP
0000001F00
0000007B00
000000E780
0000018380
00000200C0
0000040040
0000000000
0000000000
0000000000
001FFFFFF8
000FFFFFF8
0003E001F0
0001F000F0
0003E000F0
0003E000E0
0007E000E0
0007C000E0
0007C000C0
000F8000C0
000F8060C0
000F806000
001F00C000
001F01C000
003F03C000
003FFF8000
007C078000
007C070000
007C070000
0078060000
0078060000
00F0060600
00F0000600
00F0000C00
01E0001C00
01E0001800
03C0007800
03C000F000
078003F000
0F000FE000
FFFFFFE000
FFFFFFC000
ENDCHAR
STARTCHAR 00CB
ENCODING 203
SWIDTH 630 0
DWIDTH 29 0
BBX 37 41 -3 0
BITMAP
000001E0F0
000003E0F0
000007C1E0
000007C1E0
0000000000
0000000000
0000000000
0000000000
0000000000
001FFFFFF8
000FFFFFF8
0003E001F0
0001F000F0
0003E000F0
0003E000E0
0007E000E0
0007C000E0
0007C000C0
000F8000C0
000F8060C0
000F806000
001F00C000
001F01C000
003F03C000
003FFF8000
007C078000
007C070000
007C070000
0078060000
0078060000
00F0060600
00F0000600
00F0000C00
01E0001C00
01E0001800
03C0007800
03C000F000
078003F000
0F000FE000
FFFFFFE000
FFFFFFC000
ENDCHAR
STARTCHAR 00CC
ENCODING 204
SWIDTH 326 0
DWIDTH 15 0
BBX 25 43 -3 0
BITMAP
00038000
0003C000
0003E000
0001F000
00007000
00001800
00000C00
00000400
00000000
00000000
00000000
001FFF80
000FFF00
0003F000
0001F000
0003E000
0003E000
0007E000
0007C000
0007C000
000F8000
000F8000
000F8000
001F0000
001F0000
003E0000
003E0000
007C0000
007C0000
007C0000
00780000
00780000
00F00000
00F00000
00F00000
01E00000
01E00000
03C00000
03C00000
07C00000
0FC00000
FFF80000
FFF80000
ENDCHAR
STARTCHAR 00CD
ENCODING 205
SWIDTH 326 0
DWIDTH 15 0
BBX 26 43 -3 0
BITMAP
000001C0
000007C0
000007C0
00000F00
00001C00
00003800
00006000
0000C000
00000000
00000000
00000000
001FFF80
000FFF00
0003F000
0001F000
0003E000
0003E000
0007E000
0007C000
0007C000
000F8000
000F8000
000F8000
001F0000
001F0000
003E0000
003E0000
007C0000
007C0000
007C0000
00780000
00780000
00F00000
00F00000
00F00000
01E00000
01E00000
03C00000
03C00000
07C00000
0FC00000
FFF80000
FFF80000
ENDCHAR
STARTCHAR 00CE
ENCODING 206
SWIDTH 326 0
DWIDTH 15 0
BBX 27 41 -3 0
BITMAP
00000F80
00003B80
000077C0
0000C3C0
000100E0
00020020
00000000
00000000
00000000
001FFF80
000FFF00
0003F000
0001F000
0003E000
0003E000
0007E000
0007C000
0007C000
000F8000
000F8000
000F8000
001F0000
001F0000
003E0000
003E0000
007C0000
007C0000
007C0000
00780000
00780000
00F00000
00F00000
00F00000
01E00000
01E00000
03C00000
03C00000
07C00000
0FC00000
FFF80000
FFF80000
ENDCHAR
STARTCHAR 00CF
ENCODING 207
SWIDTH 326 0
DWIDTH 15 0
BBX 29 41 -3 0
BITMAP
0000F078
0001F0F8
0003E1F0
0003E1F0
00000000
00000000
00000000
00000000
00000000
001FFF80
000FFF00
0003F000
0001F000
0003E000
0003E000
0007E000
0007C000
0007C000
000F8000
000F8000
000F8000
001F0000
001F0000
003E0000
003E0000
007C0000
007C0000
007C0000
00780000
00780000
00F00000
00F00000
00F00000
01E00000
01E00000
03C00000
03C00000
07C00000
0FC00000
FFF80000
FFF80000
ENDCHAR
STARTCHAR 00D0
ENCODING 208
SWIDTH 717 0
DWIDTH 33 0
BBX 37 32 -3 0
BITMAP
001FFFC000
000FFFF800
0003E07E00
0001F00780
0003E007C0
0003E003C0
0007E001E0
0007C001F0
0007C001F0
000F8000F0
000F8000F0
000F8000F8
001F0000F8
001F0000F8
003E0000F8
03FFF000F0
001C0000F0
007C0001F0
007C0001E0
00780001E0
00780003C0
00F00003C0
00F0000780
00F0000F80
01E0001F00
01E0001F00
03C000FC00
03C001F800
078007E000
0F001F8000
FFFFFE0000
FFFFF00000
ENDCHAR
STARTCHAR 00D1
ENCODING 209
SWIDTH 739 0
DWIDTH 34 0
BBX 44 42 -3 0
BITMAP
000000300000
000000FC0400
000001FFF000
0000031FF000
00000207E000
00000403C000
000000000000
000000000000
000000000000
000000000000
000FE0007FF0
000FE0007FE0
0007E0000F80
0003F0000E00
0003F0000E00
0003F0000C00
0003F8001C00
0007F8001800
00067C001800
000E7C003800
000E3E003000
000C3E007000
001C1F007000
00181F006000
00180F80E000
00300FC0C000
00700FC0C000
007007E08000
006007E18000
006007F10000
004003F10000
004001F30000
00C001FB0000
008001F30000
018000FF0000
018000FE0000
0380007C0000
0380003C0000
0780003C0000
0F8000180000
7FE000180000
FFE000080000
ENDCHAR
STARTCHAR 00D2
ENCODING 210
SWIDTH 739 0
DWIDTH 34 0
BBX 31 43 4 0
BITMAP
00038000
0003C000
0003E000
0001F800
00007800
00001C00
00000600
00000200
00000000
00000000
00000000
0007FF00
001FFF80
007C03C0
01F000F0
03E00078
07C00078
0F80007C
1F80007C
1F00007C
3E00007C
3E00007E
3E00007E
3C00007E
7C00007E
7800007E
F800007C
F800007C
F000007C
F0000078
F00000F8
F00000F0
F00001F0
F00001E0
F00003E0
F00003C0
78000780
38001F80
3C003F00
3E007C00
1F01F800
07FFE000
01FF8000
ENDCHAR
STARTCHAR 00D3
ENCODING 211
SWIDTH 739 0
DWIDTH 34 0
BBX 31 43 4 0
BITMAP
000000C0
000003C0
000003C0
00000F80
00001E00
00003C00
00006000
0000C000
00000000
00000000
00000000
0007FF00
001FFF80
007C03C0
01F000F0
03E00078
07C00078
0F80007C
1F80007C
1F00007C
3E00007C
3E00007E
3E00007E
3C00007E
7C00007E
7800007E
F800007C
F800007C
F000007C
F0000078
F00000F8
F00000F0
F00001F0
F00001E0
F00003E0
F00003C0
78000780
38001F80
3C003F00
3E007C00
1F01F800
07FFE000
01FF8000
ENDCHAR
STARTCHAR 00D4
ENCODING 212
SWIDTH 739 0
DWIDTH 34 0
BBX 31 41 4 0
BITMAP
00000F80
00003D80
000073C0
0000C1C0
00010060
00020020
00000000
00000000
00000000
0007FF00
001FFF80
007C03C0
01F000F0
03E00078
07C00078
0F80007C
1F80007C
1F00007C
3E00007C
3E00007E
3E00007E
3C00007E
7C00007E
7800007E
F800007C
F800007C
F000007C
F0000078
F00000F8
F00000F0
F00001F0
F00001E0
F00003E0
F00003C0
78000780
38001F80
3C003F00
3E007C00
1F01F800
07FFE000
01FF8000
ENDCHAR
STARTCHAR 00D5
ENCODING 213
SWIDTH 739 0
DWIDTH 34 0
BBX 31 42 4 0
BITMAP
00003000
0000FC04
0001FFF0
00031FF0
000207E0
000403C0
00000000
00000000
00000000
00000000
0007FF00
001FFF80
007C03C0
01F000F0
03E00078
07C00078
0F80007C
1F80007C
1F00007C
3E00007C
3E00007E
3E00007E
3C00007E
7C00007E
7800007E
F800007C
F800007C
F000007C
F0000078
F00000F8
F00000F0
F00001F0
F00001E0
F00003E0
F00003C0
78000780
38001F80
3C003F00
3E007C00
1F01F800
07FFE000
01FF8000
ENDCHAR
STARTCHAR 00D6
ENCODING 214
SWIDTH 739 0
DWIDTH 34 0
BBX 31 41 4 0
BITMAP
0000F078
0001F078
0003E0F0
0003E0F0
00000000
00000000
00000000
00000000
00000000
0007FF00
001FFF80
007C03C0
01F000F0
03E00078
07C00078
0F80007C
1F80007C
1F00007C
3E00007C
3E00007E
3E00007E
3C00007E
7C00007E
7800007E
F800007C
F800007C
F000007C
F0000078
F00000F8
F00000F0
F00001F0
F00001E0
F00003E0
F00003C0
78000780
38001F80
3C003F00
3E007C00
1F01F800
07FFE000
01FF8000
ENDCHAR
STARTCHAR 00D7
ENCODING 215
SWIDTH 521 0
DWIDTH 24 0
BBX 21 17 3 6
BITMAP
040008
0E0018
070070
0300E0
0383C0
01C300
00FC00
007800
007000
01F800
039800
0F1C00
1C0C00
180400
700600
E00200
C00300
ENDCHAR
STARTCHAR 00D8
ENCODING 216
SWIDTH 739 0
DWIDTH 34 0
BBX 40 32 -1 0
BITMAP
00003FF807
0000FFFC0E
0003E01E1C
000F8007F0
001F0003C0
003E000380
007C000320
00FC000FE0
00F8001FE0
01F0003BE0
01F00073F0
01F000E3F0
01E001C3F0
03E00703F0
03C00E03F0
07C03803E0
07C03003E0
07806003E0
0780C007C0
07838007C0
0787000780
078E000F80
079C000F00
07B8001F00
07F0003E00
03C0003C00
03C000FC00
07E001F800
0FF007E000
3CFC0FC000
703FFF0000
E00FFC0000
ENDCHAR
STARTCHAR 00D9
ENCODING 217
SWIDTH 760 0
DWIDTH 35 0
BBX 36 44 6 -1
BITMAP
0001C00000
0001E00000
0001F00000
0000FC0000
00003C0000
00000E0000
0000020000
0000020000
0000000000
0000000000
0000000000
3FFF00FFF0
1FFE007FE0
07E0001F00
07E0001C00
07C0001C00
07C0001800
0F80001800
0F80003800
0F80003000
1F00003000
1F00007000
1F00006000
3E00006000
3E0000E000
3E0000C000
7C0001C000
FC00018000
F800018000
F800018000
F800010000
F000030000
F000030000
F000020000
F000060000
F000060000
F0000E0000
F800380000
FC00780000
FE01F00000
7FCFE00000
1FFF800000
0FFE000000
0060000000
ENDCHAR
STARTCHAR 00DA
ENCODING 218
SWIDTH 760 0
DWIDTH 35 0
BBX 36 44 6 -1
BITMAP
000000E000
000001E000
000001E000
0000078000
00000E0000
00001E0000
0000300000
0000600000
0000000000
0000000000
0000000000
3FFF00FFF0
1FFE007FE0
07E0001F00
07E0001C00
07C0001C00
07C0001800
0F80001800
0F80003800
0F80003000
1F00003000
1F00007000
1F00006000
3E00006000
3E0000E000
3E0000C000
7C0001C000
FC00018000
F800018000
F800018000
F800010000
F000030000
F000030000
F000020000
F000060000
F000060000
F0000E0000
F800380000
FC00780000
FE01F00000
7FCFE00000
1FFF800000
0FFE000000
0060000000
ENDCHAR
STARTCHAR 00DB
ENCODING 219
SWIDTH 760 0
DWIDTH 35 0
BBX 36 42 6 -1
BITMAP
000007C000
00001FC000
000039E000
000061E000
0000807000
0001001000
0000000000
0000000000
0000000000
3FFF00FFF0
1FFE007FE0
07E0001F00
07E0001C00
07C0001C00
07C0001800
0F80001800
0F80003800
0F80003000
1F00003000
1F00007000
1F00006000
3E00006000
3E0000E000
3E0000C000
7C0001C000
FC00018000
F800018000
F800018000
F800010000
F000030000
F000030000
F000020000
F000060000
F000060000
F0000E0000
F800380000
FC00780000
FE01F00000
7FCFE00000
1FFF800000
0FFE000000
0060000000
ENDCHAR
STARTCHAR 00DC
ENCODING 220
SWIDTH 760 0
DWIDTH 35 0
BBX 36 42 6 -1
BITMAP
0000783C00
0000F87C00
0001F0F800
0001F0F800
0000000000
0000000000
0000000000
0000000000
0000000000
3FFF00FFF0
1FFE007FE0
07E0001F00
07E0001C00
07C0001C00
07C0001800
0F80001800
0F80003800
0F80003000
1F00003000
1F00007000
1F00006000
3E00006000
3E0000E000
3E0000C000
7C0001C000
FC00018000
F800018000
F800018000
F800010000
F000030000
F000030000
F000020000
F000060000
F000060000
F0000E0000
F800380000
FC00780000
FE01F00000
7FCFE00000
1FFF800000
0FFE000000
0060000000
ENDCHAR
STARTCHAR 00DD
ENCODING 221
SWIDTH 695 0
DWIDTH 32 0
BBX 34 43 6 0
BITMAP
0000018000
0000078000
0000078000
00001E0000
00003C0000
0000780000
0000C00000
0001800000
0000000000
0000000000
0000000000
3FFC01FFC0
1FF801FF80
0FE0003E00
07E0007800
07E0007000
03E000E000
03E0018000
03E0010000
03E0020000
01E0060000
01E00C0000
01E0180000
00F0300000
00F0E00000
00F1C00000
0077000000
006E000000
007C000000
007C000000
0078000000
0078000000
00F0000000
00F0000000
00F0000000
01E0000000
01E0000000
03E0000000
03E0000000
07E0000000
0FE0000000
FFF8000000
FFF8000000
ENDCHAR
STARTCHAR 00DE
ENCODING 222
SWIDTH 630 0
DWIDTH 29 0
BBX 32 32 -3 0
BITMAP
001FFF80
000FFF00
0001F800
0001F000
0003E000
0003E000
0003FF80
0007FFF0
000700FC
0007C07E
000F803F
000F801F
001F001F
001F001F
001F001F
003E001F
007E003F
007C003E
007C007E
007800FC
007801F8
007803F0
00FFFFC0
00FFFE00
01C00000
01E00000
03C00000
03C00000
07C00000
0FC00000
FFF80000
FFFC0000
ENDCHAR
STARTCHAR 00DF
ENCODING 223
SWIDTH 586 0
DWIDTH 27 0
BBX 39 44 -10 -11
BITMAP
0000000F00
0000003FE0
000000F0F8
000001E03C
000007C03C
000007803E
00000F803C
00000F003C
00001F0078
00001E00F8
00003E01E0
0001FE07C0
0001FC0F00
00001C1E00
0000783800
0000783000
0000F07000
0000F07000
0000F07800
0000E07C00
0001E03C00
0001C03E00
0001C01F00
0003C01F00
0003801F80
0007800F80
00070C07C0
000F1E03C0
000F1C0380
000F1C0780
001F1E0F00
001E0F1E00
003E03FC00
003C000000
003C000000
007C000000
0078000000
0078000000
20F0000000
F1E0000000
E1C0000000
E780000000
7F00000000
0800000000
ENDCHAR
STARTCHAR 00E0
ENCODING 224
SWIDTH 543 0
DWIDTH 25 0
BBX 23 33 1 0
BITMAP
003800
003C00
003E00
003F00
000700
000180
0000C0
000040
000000
000000
000000
000F00
007FEE
01F0FE
03C07C
07807C
0E0078
1E00F8
1C00F0
3800F0
3800E0
7800E0
7801E0
F801C0
F803C0
F80380
F80580
F81B04
F83708
F86718
7FCFF0
3F8FC0
1F0780
ENDCHAR
STARTCHAR 00E1
ENCODING 225
SWIDTH 543 0
DWIDTH 25 0
BBX 23 33 1 0
BITMAP
00001C
00007C
00007C
0000FC
0001C0
000380
000600
000C00
000000
000000
000000
000F00
007FEE
01F0FE
03C07C
07807C
0E0078
1E00F8
1C00F0
3800F0
3800E0
7800E0
7801E0
F801C0
F803C0
F80380
F80580
F81B04
F83708
F86718
7FCFF0
3F8FC0
1F0780
ENDCHAR
STARTCHAR 00E2
ENCODING 226
SWIDTH 543 0
DWIDTH 25 0
BBX 23 31 1 0
BITMAP
0000F8
0001F8
00077C
000C3C
00100E
002002
000000
000000
000000
000F00
007FEE
01F0FE
03C07C
07807C
0E0078
1E00F8
1C00F0
3800F0
3800E0
7800E0
7801E0
F801C0
F803C0
F80380
F80580
F81B04
F83708
F86718
7FCFF0
3F8FC0
1F0780
ENDCHAR
STARTCHAR 00E3
ENCODING 227
SWIDTH 543 0
DWIDTH 25 0
BBX 26 32 1 0
BITMAP
00030000
000F8040
000FE080
0031FF00
0020FE00
00407C00
00000000
00000000
00000000
00000000
000F0000
007FEE00
01F0FE00
03C07C00
07807C00
0E007800
1E00F800
1C00F000
3800F000
3800E000
7800E000
7801E000
F801C000
F803C000
F8038000
F8058000
F81B0400
F8370800
F8671800
7FCFF000
3F8FC000
1F078000
ENDCHAR
STARTCHAR 00E4
ENCODING 228
SWIDTH 543 0
DWIDTH 25 0
BBX 25 31 1 0
BITMAP
000F0780
001F0F80
003E1F00
003E1F00
00000000
00000000
00000000
00000000
00000000
000F0000
007FEE00
01F0FE00
03C07C00
07807C00
0E007800
1E00F800
1C00F000
3800F000
3800E000
7800E000
7801E000
F801C000
F803C000
F8038000
F8058000
F81B0400
F8370800
F8671800
7FCFF000
3F8FC000
1F078000
ENDCHAR
STARTCHAR 00E5
ENCODING 229
SWIDTH 543 0
DWIDTH 25 0
BBX 23 33 1 0
BITMAP
0003C0
0007F0
000630
000C38
000C38
000C30
0006F0
0003E0
000000
000000
000000
000F00
007FEE
01F0FE
03C07C
07807C
0E0078
1E00F8
1C00F0
3800F0
3800E0
7800E0
7801E0
F801C0
F803C0
F80380
F80580
F81B04
F83708
F86718
7FCFF0
3F8FC0
1F0780
ENDCHAR
STARTCHAR 00E6
ENCODING 230
SWIDTH 739 0
DWIDTH 34 0
BBX 34 22 1 0
BITMAP
000F807E00
007FF1FF00
01F0FF8780
03E07F07C0
07803E03C0
0E007C0780
1E00780F00
1C00F80E00
3C00F03C00
3800F7F000
7800FF8000
7800C00000
7801E00000
F801E00000
F803E00000
F806E00000
F81CF00000
F838F80400
7870FC0800
7FE0FFF000
3FC07FF000
1F001FE000
ENDCHAR
STARTCHAR 00E7
ENCODING 231
SWIDTH 413 0
DWIDTH 19 0
BBX 18 31 2 -9
BITMAP
007E00
01FF00
07C380
0F01C0
0E01C0
1C03C0
380380
380100
700000
700000
F00000
F00000
F00000
F00000
F00000
F00000
F00000
F80200
7C0C00
7FF800
3FF000
0FE000
0C0000
080000
140000
1E0000
1E0000
0F0000
0E0000
8C0000
780000
ENDCHAR
STARTCHAR 00E8
ENCODING 232
SWIDTH 413 0
DWIDTH 19 0
BBX 19 33 1 0
BITMAP
00E000
00F000
00F800
00FC00
001E00
000700
000100
000100
000000
000000
000000
003F00
00FF80
03C1C0
0780E0
0700E0
1E01C0
1C0380
3C0700
381F00
7BFC00
7FC000
700000
780000
780000
F80000
F80000
780000
7C0100
3E0600
3FFC00
1FF800
07F000
ENDCHAR
STARTCHAR 00E9
ENCODING 233
SWIDTH 413 0
DWIDTH 19 0
BBX 20 33 1 0
BITMAP
000070
0000F0
0000F0
0001F0
000700
000F00
001800
003000
000000
000000
000000
003F00
00FF80
03C1C0
0780E0
0700E0
1E01C0
1C0380
3C0700
381F00
7BFC00
7FC000
700000
780000
780000
F80000
F80000
780000
7C0100
3E0600
3FFC00
1FF800
07F000
ENDCHAR
STARTCHAR 00EA
ENCODING 234
SWIDTH 413 0
DWIDTH 19 0
BBX 21 31 1 0
BITMAP
0003E0
0007E0
001CF0
0030F0
004038
008008
000000
000000
000000
003F00
00FF80
03C1C0
0780E0
0700E0
1E01C0
1C0380
3C0700
381F00
7BFC00
7FC000
700000
780000
780000
F80000
F80000
780000
7C0100
3E0600
3FFC00
1FF800
07F000
ENDCHAR
STARTCHAR 00EB
ENCODING 235
SWIDTH 413 0
DWIDTH 19 0
BBX 23 31 1 0
BITMAP
003C1E
007C3E
00F87C
00F87C
000000
000000
000000
000000
000000
003F00
00FF80
03C1C0
0780E0
0700E0
1E01C0
1C0380
3C0700
381F00
7BFC00
7FC000
700000
780000
780000
F80000
F80000
780000
7C0100
3E0600
3FFC00
1FF800
07F000
ENDCHAR
STARTCHAR 00EC
ENCODING 236
SWIDTH 282 0
DWIDTH 13 0
BBX 13 33 1 0
BITMAP
0600
0700
0780
07C0
01E0
0070
0018
0008
0000
0000
0000
00E0
0FE0
07E0
07C0
07C0
0780
0700
0700
0F00
0E00
0E00
1E00
1C00
3C00
3800
3800
7840
F880
F900
FE00
FC00
7800
ENDCHAR
STARTCHAR 00ED
ENCODING 237
SWIDTH 282 0
DWIDTH 13 0
BBX 16 33 1 0
BITMAP
0003
000F
000F
001F
0078
00F0
0180
0300
0000
0000
0000
00E0
0FE0
07E0
07C0
07C0
0780
0700
0700
0F00
0E00
0E00
1E00
1C00
3C00
3800
3800
7840
F880
F900
FE00
FC00
7800
ENDCHAR
STARTCHAR 00EE
ENCODING 238
SWIDTH 282 0
DWIDTH 13 0
BBX 17 31 1 0
BITMAP
003F00
007F00
01CF00
030700
040180
080080
000000
000000
000000
00E000
0FE000
07E000
07C000
07C000
078000
070000
070000
0F0000
0E0000
0E0000
1E0000
1C0000
3C0000
380000
380000
784000
F88000
F90000
FE0000
FC0000
780000
ENDCHAR
STARTCHAR 00EF
ENCODING 239
SWIDTH 282 0
DWIDTH 13 0
BBX 19 31 1 0
BITMAP
03C0E0
07C1E0
0783C0
0783C0
000000
000000
000000
000000
000000
00E000
0FE000
07E000
07C000
07C000
078000
070000
070000
0F0000
0E0000
0E0000
1E0000
1C0000
3C0000
380000
380000
784000
F88000
F90000
FE0000
FC0000
780000
ENDCHAR
STARTCHAR 00F0
ENCODING 240
SWIDTH 521 0
DWIDTH 24 0
BBX 27 33 1 0
BITMAP
00040000
00020000
00010000
00008000
0000CFE0
0000FF80
001FF000
007F0000
00007800
00007800
00007800
003F7C00
00FFFC00
03F0FC00
07C0FC00
07807C00
1E007C00
1C007C00
3C007C00
38007C00
78007800
7800F800
7800F800
7800F000
F800F000
F800F000
F801E000
7803C000
78078000
380F0000
381F0000
1FFC0000
07F80000
ENDCHAR
STARTCHAR 00F1
ENCODING 241
SWIDTH 565 0
DWIDTH 26 0
BBX 29 32 0 0
BITMAP
00006000
0000F808
0000FE08
00033FF0
00020FE0
000407C0
00000000
00000000
00000000
00000000
00787C00
07F0FE00
03F1FF00
01F31F00
01E61F00
03D81E00
03B03E00
03E03C00
03403C00
03807C00
07807800
07007800
0F007000
0E007000
0E00F000
1E00E000
3C01C100
3C01C200
3C03C400
7C03FC00
7803F000
F801E000
ENDCHAR
STARTCHAR 00F2
ENCODING 242
SWIDTH 500 0
DWIDTH 23 0
BBX 21 33 1 0
BITMAP
00E000
00F000
00F800
00FC00
001E00
000700
000100
000100
000000
000000
000000
003F00
00FF80
03E1C0
07C0E0
0700F0
1E00F0
1C00F0
3C00F8
3C00F8
7800F0
7800F0
7800F0
7800F0
F800E0
F801E0
F801E0
780380
780700
780F00
381E00
1FFC00
07F000
ENDCHAR
STARTCHAR 00F3
ENCODING 243
SWIDTH 500 0
DWIDTH 23 0
BBX 21 33 1 0
BITMAP
000070
0000F0
0000F0
0001F0
000700
000F00
001800
003000
000000
000000
000000
003F00
00FF80
03E1C0
07C0E0
0700F0
1E00F0
1C00F0
3C00F8
3C00F8
7800F0
7800F0
7800F0
7800F0
F800E0
F801E0
F801E0
780380
780700
780F00
381E00
1FFC00
07F000
ENDCHAR
STARTCHAR 00F4
ENCODING 244
SWIDTH 500 0
DWIDTH 23 0
BBX 21 31 1 0
BITMAP
0003E0
0007E0
001CF0
0030F0
004038
008008
000000
000000
000000
003F00
00FF80
03E1C0
07C0E0
0700F0
1E00F0
1C00F0
3C00F8
3C00F8
7800F0
7800F0
7800F0
7800F0
F800E0
F801E0
F801E0
780380
780700
780F00
381E00
1FFC00
07F000
ENDCHAR
STARTCHAR 00F5
ENCODING 245
SWIDTH 500 0
DWIDTH 23 0
BBX 24 32 1 0
BITMAP
000C00
003F01
003F82
00C7FC
0081F8
0100F0
000000
000000
000000
000000
003F00
00FF80
03E1C0
07C0E0
0700F0
1E00F0
1C00F0
3C00F8
3C00F8
7800F0
7800F0
7800F0
7800F0
F800E0
F801E0
F801E0
780380
780700
780F00
381E00
1FFC00
07F000
ENDCHAR
STARTCHAR 00F6
ENCODING 246
SWIDTH 500 0
DWIDTH 23 0
BBX 23 31 1 0
BITMAP
003C1E
007C3E
00F87C
00F87C
000000
000000
000000
000000
000000
003F00
00FF80
03E1C0
07C0E0
0700F0
1E00F0
1C00F0
3C00F8
3C00F8
7800F0
7800F0
7800F0
7800F0
F800E0
F801E0
F801E0
780380
780700
780F00
381E00
1FFC00
07F000
ENDCHAR
STARTCHAR 00F8
ENCODING 248
SWIDTH 500 0
DWIDTH 23 0
BBX 25 22 -1 0
BITMAP
000FC180
003FE300
00F87E00
01F03C00
01C03800
07807C00
0700FC00
0F01FC00
0F03BC00
1E073C00
1E0E3C00
1E183C00
1E303C00
3E603800
3EC07800
3F807800
1600E000
0E01C000
1E03C000
3E078000
77FF0000
E3FC0000
ENDCHAR
STARTCHAR 00F9
ENCODING 249
SWIDTH 543 0
DWIDTH 25 0
BBX 23 33 2 -1
BITMAP
007000
007800
007C00
007E00
000E00
000300
000180
000080
000000
000000
000000
01E03E
1FC03C
0FC07C
07C078
078078
0F00F0
0F01F0
0E01E0
0E01E0
1E01E0
1C01C0
1C01C0
380380
380780
780F80
700B00
F03608
F06E10
F0DE30
F39FE0
FF1FC0
7C0F00
ENDCHAR
STARTCHAR 00FA
ENCODING 250
SWIDTH 543 0
DWIDTH 25 0
BBX 23 33 2 -1
BITMAP
000038
0000F8
0000F8
0001F8
000380
000700
000C00
001800
000000
000000
000000
01E03E
1FC03C
0FC07C
07C078
078078
0F00F0
0F01F0
0E01E0
0E01E0
1E01E0
1C01C0
1C01C0
380380
380780
780F80
700B00
F03608
F06E10
F0DE30
F39FE0
FF1FC0
7C0F00
ENDCHAR
STARTCHAR 00FB
ENCODING 251
SWIDTH 543 0
DWIDTH 25 0
BBX 23 31 2 -1
BITMAP
0001F0
0003F0
000EF8
001878
00201C
004004
000000
000000
000000
01E03E
1FC03C
0FC07C
07C078
078078
0F00F0
0F01F0
0E01E0
0E01E0
1E01E0
1C01C0
1C01C0
380380
380780
780F80
700B00
F03608
F06E10
F0DE30
F39FE0
FF1FC0
7C0F00
ENDCHAR
STARTCHAR 00FC
ENCODING 252
SWIDTH 543 0
DWIDTH 25 0
BBX 24 31 2 -1
BITMAP
001E0F
003E1F
007C3E
007C3E
000000
000000
000000
000000
000000
01E03E
1FC03C
0FC07C
07C078
078078
0F00F0
0F01F0
0E01E0
0E01E0
1E01E0
1C01C0
1C01C0
380380
380780
780F80
700B00
F03608
F06E10
F0DE30
F39FE0
FF1FC0
7C0F00
ENDCHAR
STARTCHAR 00FD
ENCODING 253
SWIDTH 521 0
DWIDTH 24 0
BBX 29 43 -6 -10
BITMAP
00000070
000001F0
000001F0
000001F0
00000700
00000E00
00001800
00003000
00000000
00000000
00000000
00060070
001F00F8
001F00F8
000F00F8
000F0038
000F8038
000F8038
000F8070
000F8070
000F8070
000780E0
000780E0
0007C1C0
0007C180
0007C180
0007C100
0007C600
0007C600
0003CC00
0003DC00
0003B800
0003F000
0003E000
0003C000
00038000
00070000
000E0000
200C0000
F8300000
F8F00000
F7C00000
7F000000
ENDCHAR
STARTCHAR 00FE
ENCODING 254
SWIDTH 565 0
DWIDTH 26 0
BBX 32 44 -7 -11
BITMAP
00000100
00003F00
00007F00
00003E00
00003E00
00003C00
00007C00
00007800
00007800
0000F800
0000F000
0001F0F0
0001E1FC
0001E7FC
0003CE3E
0003DC1F
0007201F
0007601F
0007C01F
0006801F
0007001F
000F001E
000E003E
001E003E
001C003C
001C007C
003C0078
007800F0
007801E0
007803C0
00FE0F80
00F7FF00
01F1FC00
01F00000
01E00000
03E00000
03C00000
03C00000
07C00000
0F800000
0F800000
1F800000
7FF00000
FFF00000
ENDCHAR
STARTCHAR 00FF
ENCODING 255
SWIDTH 521 0
DWIDTH 24 0
BBX 31 41 -6 -10
BITMAP
00003C1E
00007C3E
0000F87C
0000F87C
00000000
00000000
00000000
00000000
00000000
00060070
001F00F8
001F00F8
000F00F8
000F0038
000F8038
000F8038
000F8070
000F8070
000F8070
000780E0
000780E0
0007C1C0
0007C180
0007C180
0007C100
0007C600
0007C600
0003CC00
0003DC00
0003B800
0003F000
0003E000
0003C000
00038000
00070000
000E0000
200C0000
F8300000
F8F00000
F7C00000
7F000000
ENDCHAR
STARTCHAR 0100
ENCODING 256
SWIDTH 695 0
DWIDTH 32 0
BBX 35 40 -4 0
BITMAP
000003FFE0
000007FFE0
0000000000
0000000000
0000000000
0000000000
0000001000
0000001000
0000003000
0000007000
000000F000
000001F000
000003F000
000007F000
000007F000
000005F000
000008F800
000018F800
000018F800
000030F800
000060F800
0000E0F800
0001C0F800
000300F800
000700F800
000E00F800
000C00F800
001FFFF800
003FFFF800
0030003800
002000FC00
004000FC00
00C000FC00
01C0007C00
0300007C00
0700007C00
0F00007C00
1F0000FE00
7FC007FF00
FFC007FF80
ENDCHAR
STARTCHAR 0101
ENCODING 257
SWIDTH 543 0
DWIDTH 25 0
BBX 24 29 1 0
BITMAP
003FFF
000000
000000
000000
000000
000000
000000
000F00
007FEE
01F0FE
03C07C
07807C
0E0078
1E00F8
1C00F0
3800F0
3800E0
7800E0
7801E0
F801C0
F803C0
F80380
F80580
F81B04
F83708
F86718
7FCFF0
3F8FC0
1F0780
ENDCHAR
STARTCHAR 0102
ENCODING 258
SWIDTH 695 0
DWIDTH 32 0
BBX 34 42 -4 0
BITMAP
0000020000
0000020040
000003C380
000003FF80
000001FF80
000000FF00
0000003C00
0000000000
0000001000
0000001000
0000003000
0000007000
000000F000
000001F000
000003F000
000007F000
000007F000
000005F000
000008F800
000018F800
000018F800
000030F800
000060F800
0000E0F800
0001C0F800
000300F800
000700F800
000E00F800
000C00F800
001FFFF800
003FFFF800
0030003800
002000FC00
004000FC00
00C000FC00
01C0007C00
0300007C00
0700007C00
0F00007C00
1F0000FE00
7FC007FF00
FFC007FF80
ENDCHAR
STARTCHAR 0103
ENCODING 259
SWIDTH 543 0
DWIDTH 25 0
BBX 23 32 1 0
BITMAP
001000
001002
001806
001FFC
000FF8
0007F0
0001C0
000000
000000
000000
000F00
007FEE
01F0FE
03C07C
07807C
0E0078
1E00F8
1C00F0
3800F0
3800E0
7800E0
7801E0
F801C0
F803C0
F80380
F80580
F81B04
F83708
F86718
7FCFF0
3F8FC0
1F0780
ENDCHAR
STARTCHAR 0104
ENCODING 260
SWIDTH 695 0
DWIDTH 32 0
BBX 33 44 -4 -10
BITMAP
0000001000
0000001000
0000003000
0000007000
000000F000
000001F000
000003F000
000007F000
000007F000
000005F000
000008F800
000018F800
000018F800
000030F800
000060F800
0000E0F800
0001C0F800
000300F800
000700F800
000E00F800
000C00F800
001FFFF800
003FFFF800
0030003800
002000FC00
004000FC00
00C000FC00
01C0007C00
0300007C00
0700007C00
0F00007C00
1F0000FE00
7FC007FF00
FFC007FF80
0000000180
0000000600
0000001C00
0000003800
0000007000
0000006000
000000E100
000000FF00
0000007E00
0000001800
ENDCHAR
STARTCHAR 0105
ENCODING 261
SWIDTH 543 0
DWIDTH 25 0
BBX 23 32 1 -10
BITMAP
000F00
007FEE
01F0FE
03C07C
07807C
0E0078
1E00F8
1C00F0
3800F0
3800E0
7800E0
7801E0
F801C0
F803C0
F80380
F80580
F81B04
F83708
F86718
7FCFF0
3F8FC0
1F0780
000080
000300
000E00
001C00
003800
003000
007000
007F00
003F00
000C00
ENDCHAR
STARTCHAR 0106
ENCODING 262
SWIDTH 652 0
DWIDTH 30 0
BBX 32 43 3 0
BITMAP
00000060
000001E0
000001E0
000007C0
00000F00
00001E00
00003000
00006000
00000000
00000000
00000000
0003FF00
000FFFC0
003F01C3
01F80076
03F00036
07E0003E
0FC0003C
0FC0003C
1F80001C
1F000018
1F000018
3E000018
3E000000
3C000000
7C000000
78000000
78000000
78000000
F8000000
F8000000
F8000000
78000000
78000000
78000000
7C000000
3C000000
1E000100
1F000600
1F800C00
07F07800
03FFE000
00FF8000
ENDCHAR
STARTCHAR 0107
ENCODING 263
SWIDTH 413 0
DWIDTH 19 0
BBX 20 33 2 0
BITMAP
000070
0001F0
0001F0
0001F0
000700
000E00
001800
003000
000000
000000
000000
007E00
01FF00
07C380
0F01C0
0E01C0
1C03C0
380380
380100
700000
700000
F00000
F00000
F00000
F00000
F00000
F00000
F00000
F80200
7C0C00
7FF800
3FF000
0FE000
ENDCHAR
STARTCHAR 0108
ENCODING 264
SWIDTH 652 0
DWIDTH 30 0
BBX 32 41 3 0
BITMAP
000007C0
00001EC0
000039E0
000060E0
00008030
00010010
00000000
00000000
00000000
0003FF00
000FFFC0
003F01C3
01F80076
03F00036
07E0003E
0FC0003C
0FC0003C
1F80001C
1F000018
1F000018
3E000018
3E000000
3C000000
7C000000
78000000
78000000
78000000
F8000000
F8000000
F8000000
78000000
78000000
78000000
7C000000
3C000000
1E000100
1F000600
1F800C00
07F07800
03FFE000
00FF8000
ENDCHAR
STARTCHAR 0109
ENCODING 265
SWIDTH 413 0
DWIDTH 19 0
BBX 21 31 2 0
BITMAP
0003E0
0007E0
001DF0
0030F0
004038
008008
000000
000000
000000
007E00
01FF00
07C380
0F01C0
0E01C0
1C03C0
380380
380100
700000
700000
F00000
F00000
F00000
F00000
F00000
F00000
F00000
F80200
7C0C00
7FF800
3FF000
0FE000
ENDCHAR
STARTCHAR 010A
ENCODING 266
SWIDTH 652 0
DWIDTH 30 0
BBX 32 41 3 0
BITMAP
00000700
00000F00
00001E00
00001E00
00000000
00000000
00000000
00000000
00000000
0003FF00
000FFFC0
003F01C3
01F80076
03F00036
07E0003E
0FC0003C
0FC0003C
1F80001C
1F000018
1F000018
3E000018
3E000000
3C000000
7C000000
78000000
78000000
78000000
F8000000
F8000000
F8000000
78000000
78000000
78000000
7C000000
3C000000
1E000100
1F000600
1F800C00
07F07800
03FFE000
00FF8000
ENDCHAR
STARTCHAR 010B
ENCODING 267
SWIDTH 413 0
DWIDTH 19 0
BBX 18 31 2 0
BITMAP
000780
000F80
000F00
000F00
000000
000000
000000
000000
000000
007E00
01FF00
07C380
0F01C0
0E01C0
1C03C0
380380
380100
700000
700000
F00000
F00000
F00000
F00000
F00000
F00000
F00000
F80200
7C0C00
7FF800
3FF000
0FE000
ENDCHAR
STARTCHAR 010C
ENCODING 268
SWIDTH 652 0
DWIDTH 30 0
BBX 32 43 3 0
BITMAP
00008000
00006008
00007030
00003CC0
000033C0
00001F80
00001F00
00000000
00000000
00000000
00000000
0003FF00
000FFFC0
003F01C3
01F80076
03F00036
07E0003E
0FC0003C
0FC0003C
1F80001C
1F000018
1F000018
3E000018
3E000000
3C000000
7C000000
78000000
78000000
78000000
F8000000
F8000000
F8000000
78000000
78000000
78000000
7C000000
3C000000
1E000100
1F000600
1F800C00
07F07800
03FFE000
00FF8000
ENDCHAR
STARTCHAR 010D
ENCODING 269
SWIDTH 413 0
DWIDTH 19 0
BBX 22 33 2 0
BITMAP
004000
003004
003818
001E70
0019C0
000F80
000F00
000000
000000
000000
000000
007E00
01FF00
07C380
0F01C0
0E01C0
1C03C0
380380
380100
700000
700000
F00000
F00000
F00000
F00000
F00000
F00000
F00000
F80200
7C0C00
7FF800
3FF000
0FE000
ENDCHAR
STARTCHAR 010E
ENCODING 270
SWIDTH 717 0
DWIDTH 33 0
BBX 37 43 -3 0
BITMAP
0000010000
000000C010
000000E060
0000007980
0000006700
0000003F00
0000003E00
0000000000
0000000000
0000000000
0000000000
001FFFE000
000FFFFC00
0001E03F00
0001F00780
0001F003C0
0003E001E0
0003E001E0
0007E001F0
0007C000F0
0007C000F8
000F8000F8
000F8000F8
000F8000F8
001F0000F8
001F0000F8
003E0000F8
003E0000F0
007C0000F0
007C0001F0
007C0001E0
00780003E0
00780003C0
00F00007C0
00F0000780
00F0000F00
01E0001F00
03C0007C00
03C001F800
07C007E000
0F801F8000
7FFFFE0000
FFFFF00000
ENDCHAR
STARTCHAR 010F
ENCODING 271
SWIDTH 586 0
DWIDTH 27 0
BBX 35 33 1 0
BITMAP
00000011C0
000007F3E0
000003F7E0
000001F7E0
000001E360
000003E0E0
000003C0C0
000003C180
000007C300
0000078C00
00000F8000
001F0F0000
007FCF0000
01F0FF0000
03E07E0000
07803E0000
0F003C0000
1E007C0000
1C00780000
3C00F80000
3800F00000
7800F00000
7800F00000
F800E00000
F801E00000
F801C00000
F802C00000
F80D820000
F81B840000
7833880000
7FE7F80000
3FC7E00000
1F03C00000
ENDCHAR
STARTCHAR 0110
ENCODING 272
SWIDTH 717 0
DWIDTH 33 0
BBX 37 32 -3 0
BITMAP
001FFFE000
000FFFFC00
0001E03F00
0001F00780
0001F003C0
0003E001E0
0003E001E0
0007C001F0
0007C000F0
0007C000F8
000F8000F8
000F8000F8
000F8000F8
001F0000F8
001F0000F8
03FFF000F8
001E0000F0
007C0000F0
007C0001F0
007C0001E0
00780003E0
00780003C0
00F00007C0
00F0000780
01F0000F00
01E0001F00
03C0007C00
03C001F800
07C007E000
0F801F8000
7FFFFE0000
FFFFF00000
ENDCHAR
STARTCHAR 0111
ENCODING 273
SWIDTH 565 0
DWIDTH 26 0
BBX 30 33 1 0
BITMAP
00000010
000007F0
000003F0
000001F0
000001E0
000003E0
0000FFFC
0000FFF8
000001C0
00000780
00000F80
001F0F00
007FCF00
01F0FF00
03E07E00
07803E00
0F003C00
1E007C00
1C007800
3C00F800
3800F000
7800F000
7800F000
F800E000
F801E000
F801C000
F802C000
F80D8200
F81B8400
78338800
7FE7F800
3FC7E000
1F03C000
ENDCHAR
STARTCHAR 0112
ENCODING 274
SWIDTH 630 0
DWIDTH 29 0
BBX 37 40 -3 0
BITMAP
000003FFE0
000007FFE0
0000000000
0000000000
0000000000
0000000000
0000000000
0000000000
001FFFFFF8
000FFFFFF8
0003E001F0
0001F000F0
0003E000F0
0003E000E0
0007E000E0
0007C000E0
0007C000C0
000F8000C0
000F8060C0
000F806000
001F00C000
001F01C000
003F03C000
003FFF8000
007C078000
007C070000
007C070000
0078060000
0078060000
00F0060600
00F0000600
00F0000C00
01E0001C00
01E0001800
03C0007800
03C000F000
078003F000
0F000FE000
FFFFFFE000
FFFFFFC000
ENDCHAR
STARTCHAR 0113
ENCODING 275
SWIDTH 413 0
DWIDTH 19 0
BBX 22 29 1 0
BITMAP
00FFFC
000000
000000
000000
000000
000000
000000
003F00
00FF80
03C1C0
0780E0
0700E0
1E01C0
1C0380
3C0700
381F00
7BFC00
7FC000
700000
780000
780000
F80000
F80000
780000
7C0100
3E0600
3FFC00
1FF800
07F000
ENDCHAR
STARTCHAR 0114
ENCODING 276
SWIDTH 630 0
DWIDTH 29 0
BBX 37 42 -3 0
BITMAP
0000020000
0000020040
000003C380
000003FF80
000001FF00
000000FF00
0000003C00
0000000000
0000000000
0000000000
001FFFFFF8
000FFFFFF8
0003E001F0
0001F000F0
0003E000F0
0003E000E0
0007E000E0
0007C000E0
0007C000C0
000F8000C0
000F8060C0
000F806000
001F00C000
001F01C000
003F03C000
003FFF8000
007C078000
007C070000
007C070000
0078060000
0078060000
00F0060600
00F0000600
00F0000C00
01E0001C00
01E0001800
03C0007800
03C000F000
078003F000
0F000FE000
FFFFFFE000
FFFFFFC000
ENDCHAR
STARTCHAR 0115
ENCODING 277
SWIDTH 413 0
DWIDTH 19 0
BBX 21 32 1 0
BITMAP
004000
004008
006018
007FF0
003FE0
001FC0
000700
000000
000000
000000
003F00
00FF80
03C1C0
0780E0
0700E0
1E01C0
1C0380
3C0700
381F00
7BFC00
7FC000
700000
780000
780000
F80000
F80000
780000
7C0100
3E0600
3FFC00
1FF800
07F000
ENDCHAR
STARTCHAR 0116
ENCODING 278
SWIDTH 630 0
DWIDTH 29 0
BBX 37 41 -3 0
BITMAP
0000001C00
0000003C00
0000007800
0000007800
0000000000
0000000000
0000000000
0000000000
0000000000
001FFFFFF8
000FFFFFF8
0003E001F0
0001F000F0
0003E000F0
0003E000E0
0007E000E0
0007C000E0
0007C000C0
000F8000C0
000F8060C0
000F806000
001F00C000
001F01C000
003F03C000
003FFF8000
007C078000
007C070000
007C070000
0078060000
0078060000
00F0060600
00F0000600
00F0000C00
01E0001C00
01E0001800
03C0007800
03C000F000
078003F000
0F000FE000
FFFFFFE000
FFFFFFC000
ENDCHAR
STARTCHAR 0117
ENCODING 279
SWIDTH 413 0
DWIDTH 19 0
BBX 19 31 1 0
BITMAP
000780
000780
000F00
000F00
000000
000000
000000
000000
000000
003F00
00FF80
03C1C0
0780E0
0700E0
1E01C0
1C0380
3C0700
381F00
7BFC00
7FC000
700000
780000
780000
F80000
F80000
780000
7C0100
3E0600
3FFC00
1FF800
07F000
ENDCHAR
STARTCHAR 0118
ENCODING 280
SWIDTH 630 0
DWIDTH 29 0
BBX 37 42 -3 -10
BITMAP
001FFFFFF8
000FFFFFF8
0003E001F0
0001F000F0
0003E000F0
0003E000E0
0007E000E0
0007C000E0
0007C000C0
000F8000C0
000F8060C0
000F806000
001F00C000
001F01C000
003F03C000
003FFF8000
007C078000
007C070000
007C070000
0078060000
0078060000
00F0060600
00F0000600
00F0000C00
01E0001C00
01E0001800
03C0007800
03C000F000
078003F000
0F000FE000
FFFFFFE000
FFFFFFC000
000000C000
0000030000
00000E0000
00000C0000
0000180000
0000100000
0000308000
00003F8000
00001F0000
00000C0000
ENDCHAR
STARTCHAR 0119
ENCODING 281
SWIDTH 413 0
DWIDTH 19 0
BBX 19 32 1 -10
BITMAP
003F00
00FF80
03C1C0
0780E0
0700E0
1E01C0
1C0380
3C0700
381F00
7BFC00
7FC000
700000
780000
780000
F80000
F80000
780000
7C0100
3E0600
3FFC00
1FF800
07F000
003000
00C000
038000
070000
060000
040000
0C2000
0FE000
07C000
030000
ENDCHAR
STARTCHAR 011A
ENCODING 282
SWIDTH 630 0
DWIDTH 29 0
BBX 37 43 -3 0
BITMAP
0000020000
0000018020
000001C0C0
000000F300
000000CF00
0000007E00
0000007C00
0000000000
0000000000
0000000000
0000000000
001FFFFFF8
000FFFFFF8
0003E001F0
0001F000F0
0003E000F0
0003E000E0
0007E000E0
0007C000E0
0007C000C0
000F8000C0
000F8060C0
000F806000
001F00C000
001F01C000
003F03C000
003FFF8000
007C078000
007C070000
007C070000
0078060000
0078060000
00F0060600
00F0000600
00F0000C00
01E0001C00
01E0001800
03C0007800
03C000F000
078003F000
0F000FE000
FFFFFFE000
FFFFFFC000
ENDCHAR
STARTCHAR 011B
ENCODING 283
SWIDTH 413 0
DWIDTH 19 0
BBX 22 33 1 0
BITMAP
004000
003004
003818
001E70
0019C0
000F80
000F00
000000
000000
000000
000000
003F00
00FF80
03C1C0
0780E0
0700E0
1E01C0
1C0380
3C0700
381F00
7BFC00
7FC000
700000
780000
780000
F80000
F80000
780000
7C0100
3E0600
3FFC00
1FF800
07F000
ENDCHAR
STARTCHAR 011C
ENCODING 284
SWIDTH 760 0
DWIDTH 35 0
BBX 32 41 4 0
BITMAP
000007C0
00001EC0
000039E0
000060E0
00008070
00010010
00000000
00000000
00000000
0007FE00
001FFF80
007F03C7
03F80076
07E00076
0FC00036
0F80003C
1F80003C
3F00003C
3E000018
3E000018
3C000010
7C000000
78000000
F8000000
F8000000
F0001FFF
F0001FFE
F00003F0
F00003E0
F00003C0
F00003C0
F00003C0
F0000780
F8000780
78000780
3C000F80
3E000F00
1F807F00
0FE3FE00
07FFC600
01FE0200
ENDCHAR
STARTCHAR 011D
ENCODING 285
SWIDTH 456 0
DWIDTH 21 0
BBX 29 42 -4 -11
BITMAP
00003E00
00007E00
0001CF00
00030700
00040380
00080080
00000000
00000000
000001F8
0007E3B8
003FFE78
003C3C78
00781C70
00F00E00
01E00F00
01C00F00
01C00F00
03C00F00
03C00F00
01C00E00
01C01E00
01E03C00
00E07800
0079F800
007FE000
03800000
07000000
0F000000
0F800000
0FFC0000
0FFFF000
07FFF800
03FFFC00
0E3FFE00
3C01FE00
78001E00
70000E00
F0001800
F8003800
7E01F000
1FFFE000
03FE0000
ENDCHAR
STARTCHAR 011E
ENCODING 286
SWIDTH 760 0
DWIDTH 35 0
BBX 32 42 4 0
BITMAP
00008000
00008010
0000F0E0
0000FFE0
00007FC0
00003F80
00000F00
00000000
00000000
00000000
0007FE00
001FFF80
007F03C7
03F80076
07E00076
0FC00036
0F80003C
1F80003C
3F00003C
3E000018
3E000018
3C000010
7C000000
78000000
F8000000
F8000000
F0001FFF
F0001FFE
F00003F0
F00003E0
F00003C0
F00003C0
F00003C0
F0000780
F8000780
78000780
3C000F80
3E000F00
1F807F00
0FE3FE00
07FFC600
01FE0200
ENDCHAR
STARTCHAR 011F
ENCODING 287
SWIDTH 456 0
DWIDTH 21 0
BBX 29 43 -4 -11
BITMAP
00040000
00040080
00060180
0007FF00
0003FE00
0001FC00
00007800
00000000
00000000
000001F8
0007E3B8
003FFE78
003C3C78
00781C70
00F00E00
01E00F00
01C00F00
01C00F00
03C00F00
03C00F00
01C00E00
01C01E00
01E03C00
00E07800
0079F800
007FE000
03800000
07000000
0F000000
0F800000
0FFC0000
0FFFF000
07FFF800
03FFFC00
0E3FFE00
3C01FE00
78001E00
70000E00
F0001800
F8003800
7E01F000
1FFFE000
03FE0000
ENDCHAR
STARTCHAR 0120
ENCODING 288
SWIDTH 760 0
DWIDTH 35 0
BBX 32 41 4 0
BITMAP
00000700
00000F00
00001E00
00001E00
00000000
00000000
00000000
00000000
00000000
0007FE00
001FFF80
007F03C7
03F80076
07E00076
0FC00036
0F80003C
1F80003C
3F00003C
3E000018
3E000018
3C000010
7C000000
78000000
F8000000
F8000000
F0001FFF
F0001FFE
F00003F0
F00003E0
F00003C0
F00003C0
F00003C0
F0000780
F8000780
78000780
3C000F80
3E000F00
1F807F00
0FE3FE00
07FFC600
01FE0200
ENDCHAR
STARTCHAR 0121
ENCODING 289
SWIDTH 456 0
DWIDTH 21 0
BBX 29 42 -4 -11
BITMAP
00003800
00007800
0000F000
0000F000
00000000
00000000
00000000
00000000
000001F8
0007E3B8
003FFE78
003C3C78
00781C70
00F00E00
01E00F00
01C00F00
01C00F00
03C00F00
03C00F00
01C00E00
01C01E00
01E03C00
00E07800
0079F800
007FE000
03800000
07000000
0F000000
0F800000
0FFC0000
0FFFF000
07FFF800
03FFFC00
0E3FFE00
3C01FE00
78001E00
70000E00
F0001800
F8003800
7E01F000
1FFFE000
03FE0000
ENDCHAR
STARTCHAR 0122
ENCODING 290
SWIDTH 760 0
DWIDTH 35 0
BBX 32 44 4 -12
BITMAP
0007FE00
001FFF80
007F03C7
03F80076
07E00076
0FC00036
0F80003C
1F80003C
3F00003C
3E000018
3E000018
3C000010
7C000000
78000000
F8000000
F8000000
F0001FFF
F0001FFE
F00003F0
F00003E0
F00003C0
F00003C0
F00003C0
F0000780
F8000780
78000780
3C000F80
3E000F00
1F807F00
0FE3FE00
07FFC600
01FE0200
00000000
00000000
00700000
00F80000
01F80000
01F80000
00D80000
00380000
00300000
00600000
00C00000
03000000
ENDCHAR
STARTCHAR 0123
ENCODING 291
SWIDTH 456 0
DWIDTH 21 0
BBX 29 46 -4 -11
BITMAP
00000800
00003000
00006000
0000C000
0001C000
0001B000
0001F800
0001F800
0001F000
0000E000
00000000
00000000
000001F8
0007E3B8
003FFE78
003C3C78
00781C70
00F00E00
01E00F00
01C00F00
01C00F00
03C00F00
03C00F00
01C00E00
01C01E00
01E03C00
00E07800
0079F800
007FE000
03800000
07000000
0F000000
0F800000
0FFC0000
0FFFF000
07FFF800
03FFFC00
0E3FFE00
3C01FE00
78001E00
70000E00
F0001800
F8003800
7E01F000
1FFFE000
03FE0000
ENDCHAR
STARTCHAR 0124
ENCODING 292
SWIDTH 760 0
DWIDTH 35 0
BBX 44 41 -3 0
BITMAP
00000003E000
0000000FE000
0000001CF000
00000030F000
000000403800
000000800800
000000000000
000000000000
000000000000
001FFF80FFF0
000FFF00FFF0
0001F8003F80
0001F0003E00
0001F0003E00
0003E0003E00
0003E0007C00
0007E0007C00
0007C000F800
0007C000F800
000F8000F800
000F8000F000
000F8000F000
001F0001F000
001F0001E000
003FFFFFC000
00380000C000
007C0003C000
007C00078000
007C00078000
0078000F0000
0078000F0000
00F0000F0000
00F0001F0000
00F0001F0000
01E0003F0000
03C0003E0000
03C0007C0000
07C0007C0000
0FC000FE0000
7FF80FFF0000
FFFC0FFF8000
ENDCHAR
STARTCHAR 0125
ENCODING 293
SWIDTH 543 0
DWIDTH 25 0
BBX 24 41 0 0
BITMAP
0001F0
0007F0
000E78
001878
00201C
004004
000000
000000
000180
007F00
007F00
001F00
001E00
003E00
003C00
007C00
007800
007800
00F800
00F078
01F0FE
01E3FE
01E71E
03EC1E
03B03E
03203C
03407C
078078
078078
070078
0E0070
0E00F0
1E00E0
1C00E0
1C01E0
3C03C1
7C0382
78038C
7803F8
F803F0
F003C0
ENDCHAR
STARTCHAR 0126
ENCODING 294
SWIDTH 760 0
DWIDTH 35 0
BBX 44 32 -3 0
BITMAP
001FFF80FFF0
000FFF00FFF0
0001F8003F80
0001F0003E00
0001F0003E00
0003E0003E00
0003E0007C00
007FFFFFFFE0
007FFFFFFFC0
0003C000E000
000F8000F800
000F8000F000
000F8000F000
001F0000F000
001F0001E000
003FFFFFC000
00380000C000
007C0003C000
007C00078000
007C00078000
0078000F0000
0078000F0000
00F0000F0000
00F0001F0000
00F0001F0000
01E0003F0000
03C0003E0000
03C0007C0000
07C0007C0000
0FC000FE0000
7FF80FFF0000
FFFC0FFF8000
ENDCHAR
STARTCHAR 0127
ENCODING 295
SWIDTH 543 0
DWIDTH 25 0
BBX 24 33 0 0
BITMAP
000180
007F00
007F00
001F00
001E00
003C00
03FFF0
03FFE0
001800
007800
00F800
00F078
01F0FE
01E3FE
01E71E
03EC1E
03B03E
03203C
03407C
078078
078078
070078
0E0070
0E00F0
1E00E0
1C00E0
1C01E0
3C03C1
7C0382
78038C
7803F8
F803F0
F003C0
ENDCHAR
STARTCHAR 0128
ENCODING 296
SWIDTH 326 0
DWIDTH 15 0
BBX 30 42 -3 0
BITMAP
00003000
0000F804
0001FFF8
00031FF0
00020FE0
000407C0
00000000
00000000
00000000
00000000
001FFF80
000FFF00
0003F000
0001F000
0003E000
0003E000
0007E000
0007C000
0007C000
000F8000
000F8000
000F8000
001F0000
001F0000
003E0000
003E0000
007C0000
007C0000
007C0000
00780000
00780000
00F00000
00F00000
00F00000
01E00000
01E00000
03C00000
03C00000
07C00000
0FC00000
FFF80000
FFF80000
ENDCHAR
STARTCHAR 0129
ENCODING 297
SWIDTH 282 0
DWIDTH 13 0
BBX 20 32 1 0
BITMAP
00C000
03F010
03FC20
047FC0
081F80
080F00
000000
000000
000000
000000
00E000
0FE000
07E000
07C000
07C000
078000
070000
070000
0F0000
0E0000
0E0000
1E0000
1C0000
3C0000
380000
380000
784000
F88000
F90000
FE0000
FC0000
780000
ENDCHAR
STARTCHAR 012A
ENCODING 298
SWIDTH 326 0
DWIDTH 15 0
BBX 28 40 -3 0
BITMAP
0001FFF0
0003FFF0
00000000
00000000
00000000
00000000
00000000
00000000
001FFF80
000FFF00
0003F000
0001F000
0003E000
0003E000
0007E000
0007C000
0007C000
000F8000
000F8000
000F8000
001F0000
001F0000
003E0000
003E0000
007C0000
007C0000
007C0000
00780000
00780000
00F00000
00F00000
00F00000
01E00000
01E00000
03C00000
03C00000
07C00000
0FC00000
FFF80000
FFF80000
ENDCHAR
STARTCHAR 012B
ENCODING 299
SWIDTH 282 0
DWIDTH 13 0
BBX 18 29 1 0
BITMAP
07FFC0
000000
000000
000000
000000
000000
000000
00E000
0FE000
07E000
07C000
07C000
078000
070000
070000
0F0000
0E0000
0E0000
1E0000
1C0000
3C0000
380000
380000
784000
F88000
F90000
FE0000
FC0000
780000
ENDCHAR
STARTCHAR 012C
ENCODING 300
SWIDTH 326 0
DWIDTH 15 0
BBX 27 42 -3 0
BITMAP
00010000
00010020
0001E3C0
0001FFC0
0000FF80
00007F00
00001C00
00000000
00000000
00000000
001FFF80
000FFF00
0003F000
0001F000
0003E000
0003E000
0007E000
0007C000
0007C000
000F8000
000F8000
000F8000
001F0000
001F0000
003E0000
003E0000
007C0000
007C0000
007C0000
00780000
00780000
00F00000
00F00000
00F00000
01E00000
01E00000
03C00000
03C00000
07C00000
0FC00000
FFF80000
FFF80000
ENDCHAR
STARTCHAR 012D
ENCODING 301
SWIDTH 282 0
DWIDTH 13 0
BBX 17 32 1 0
BITMAP
040000
040080
060080
07FF00
03FF00
01FE00
007800
000000
000000
000000
00E000
0FE000
07E000
07C000
07C000
078000
070000
070000
0F0000
0E0000
0E0000
1E0000
1C0000
3C0000
380000
380000
784000
F88000
F90000
FE0000
FC0000
780000
ENDCHAR
STARTCHAR 012E
ENCODING 302
SWIDTH 326 0
DWIDTH 15 0
BBX 25 42 -3 -10
BITMAP
001FFF80
000FFF00
0003F000
0001F000
0003E000
0003E000
0007E000
0007C000
0007C000
000F8000
000F8000
000F8000
001F0000
001F0000
003E0000
003E0000
007C0000
007C0000
007C0000
00780000
00780000
00F00000
00F00000
00F00000
01E00000
01E00000
03C00000
03C00000
07C00000
0FC00000
FFF80000
FFF80000
00180000
00600000
00C00000
01800000
03800000
03000000
07100000
07F00000
03E00000
00800000
ENDCHAR
STARTCHAR 012F
ENCODING 303
SWIDTH 282 0
DWIDTH 13 0
BBX 19 41 -2 -10
BITMAP
0003E0
0007C0
000F80
000F80
000000
000000
000000
000000
000000
001C00
01FC00
00FC00
00F800
00F800
00F000
00E000
00E000
01E000
01C000
01C000
03C000
038000
078000
070000
070000
0F0800
1F1000
1F2000
1FC000
1F8000
0F0000
010000
060000
1C0000
380000
700000
600000
E10000
FF0000
7E0000
180000
ENDCHAR
STARTCHAR 0130
ENCODING 304
SWIDTH 326 0
DWIDTH 15 0
BBX 25 41 -3 0
BITMAP
00001E00
00003E00
00007C00
00007C00
00000000
00000000
00000000
00000000
00000000
001FFF80
000FFF00
0003F000
0001F000
0003E000
0003E000
0007E000
0007C000
0007C000
000F8000
000F8000
000F8000
001F0000
001F0000
003E0000
003E0000
007C0000
007C0000
007C0000
00780000
00780000
00F00000
00F00000
00F00000
01E00000
01E00000
03C00000
03C00000
07C00000
0FC00000
FFF80000
FFF80000
ENDCHAR
STARTCHAR 0131
ENCODING 305
SWIDTH 282 0
DWIDTH 13 0
BBX 11 22 1 0
BITMAP
00E0
0FE0
07E0
07C0
07C0
0780
0700
0700
0F00
0E00
0E00
1E00
1C00
3C00
3800
3800
7840
F880
F900
FE00
FC00
7800
ENDCHAR
STARTCHAR 0132
ENCODING 306
SWIDTH 869 0
DWIDTH 40 0
BBX 51 33 -3 -1
BITMAP
001FFF8007FFE0
000FFF0003FFC0
0003F00000FC00
0001F00000F800
0003E00000F000
0003E00000F000
0007E00001E000
0007C00001E000
0007C00001E000
000F800003E000
000F800003E000
000F800003E000
001F000007C000
001F000007C000
003E00000F8000
003E00000F8000
007C00001F0000
007C00001F0000
007C00003E0000
007800003E0000
007800003E0000
00F000007C0000
00F000007C0000
00F01800FC0000
01E03C00F80000
01E03C00F80000
03C07000F00000
03C03001E00000
07C03803C00000
0FC01C0F800000
FFF80FFF000000
FFF807FE000000
000000E0000000
ENDCHAR
STARTCHAR 0133
ENCODING 307
SWIDTH 543 0
DWIDTH 25 0
BBX 28 42 1 -11
BITMAP
001F00F0
003E01F0
007C01E0
007C03E0
00000000
00000000
00000000
00000000
00000000
00E00780
0FE0FF00
07E07F00
07C03E00
07C03E00
07803C00
07007C00
07007800
0F007800
0E00F800
0E00F000
1E00F000
1C00F000
3C00E000
3801E000
3801C000
7843C000
F8838000
F9078000
FE070000
FC070000
780F0000
000F0000
001F0000
001E0000
001E0000
003E0000
083C0000
38780000
38F00000
39E00000
1FC00000
07000000
ENDCHAR
STARTCHAR 0134
ENCODING 308
SWIDTH 565 0
DWIDTH 26 0
BBX 36 42 -1 -1
BITMAP
00000007C0
0000001DC0
0000003BE0
00000061E0
0000008070
0000010010
0000000000
0000000000
0000000000
00000FFFC0
000007FF80
000001FC00
000001F800
000001F000
000001F000
000003E000
000003E000
000003E000
000007C000
000007C000
000007C000
00000F8000
00000F8000
00001F0000
00001F0000
00003E0000
00003E0000
00003C0000
00003C0000
00003C0000
0000780000
0000780000
3800F80000
7C00F00000
7C00F00000
F001E00000
7003C00000
7807C00000
3C1F800000
1FFF000000
07FC000000
01C0000000
ENDCHAR
STARTCHAR 0135
ENCODING 309
SWIDTH 260 0
DWIDTH 12 0
BBX 28 42 -10 -11
BITMAP
000007E0
00000FE0
000039E0
000060E0
00008030
00010010
00000000
00000000
00000000
00001E00
0001FC00
0000FC00
0000F800
0000F800
0000F000
0000F000
0000E000
0000E000
0001E000
0001C000
0003C000
0003C000
00038000
00078000
00070000
000F0000
000F0000
001F0000
001E0000
001E0000
003E0000
003C0000
007C0000
00780000
00780000
00F80000
20F00000
F1E00000
E3C00000
E7800000
7F000000
1C000000
ENDCHAR
STARTCHAR 0136
ENCODING 310
SWIDTH 717 0
DWIDTH 33 0
BBX 42 44 -3 -12
BITMAP
001FFF80FFC0
000FFF00FFC0
0001F8007E00
0001F000E000
0001F000C000
0003E0030000
0003E0070000
0007C00E0000
0007C0380000
0007C0700000
000F80E00000
000F83800000
001F87000000
001F0E000000
001F1E000000
003E7F000000
003DDF000000
007B8F800000
007F0F800000
007C0F800000
00780FC00000
00780FC00000
00F007E00000
00F007E00000
01F007E00000
01E003F00000
03C003F80000
03C001F80000
07C001F80000
0FC001FC0000
7FF800FF0000
FFFC00FF0000
000000000000
000000000000
0001C0000000
0003E0000000
0007E0000000
0007E0000000
000360000000
0000E0000000
0000C0000000
000180000000
000300000000
000C00000000
ENDCHAR
STARTCHAR 0137
ENCODING 311
SWIDTH 521 0
DWIDTH 24 0
BBX 25 45 0 -12
BITMAP
00018000
007F8000
003F0000
001F0000
001E0000
003E0000
003C0000
003C0000
007C0000
00780000
00F80000
00F00F00
00F03F80
01F07F80
01E0C780
01E18700
03C60000
03CC0000
039C0000
039E0000
073E0000
077F0000
0EDF0000
0D9F0000
0F1F0000
1E0F8000
1C0F8000
3C078000
3C078400
7C078800
7807F000
7803E000
F801C000
00000000
00000000
03800000
03C00000
07C00000
07C00000
02C00000
01C00000
01800000
03000000
02000000
0C000000
ENDCHAR
STARTCHAR 0138
ENCODING 312
SWIDTH 521 0
DWIDTH 24 0
BBX 25 22 0 0
BITMAP
00780F00
07F03F80
03F07F80
03E06780
01E18700
03C70000
03C60000
038E0000
039E0000
07BE0000
077F0000
06DF0000
0F9F0000
0F0F8000
1E0F8000
1C0F8000
3C078000
3C078400
3C07C800
7803F800
7803F000
F801C000
ENDCHAR
STARTCHAR 0139
ENCODING 313
SWIDTH 630 0
DWIDTH 29 0
BBX 32 43 -3 0
BITMAP
000000E0
000003E0
000003E0
00000F80
00000E00
00001C00
00003000
00006000
00000000
00000000
00000000
000FFF80
000FFF80
0001F800
0001F000
0001F000
0003E000
0003E000
0007E000
0007C000
0007C000
000F8000
000F8000
000F8000
001F0000
001F0000
003E0000
003E0000
007C0000
007C0000
007C0000
00780000
00780003
00F00006
00F0000E
00F0000C
01E0001C
01E00078
03C000F0
07C001F0
0F8007E0
7FFFFFE0
FFFFFFE0
ENDCHAR
STARTCHAR 013A
ENCODING 314
SWIDTH 282 0
DWIDTH 13 0
BBX 20 43 1 0
BITMAP
000070
0000F0
0000F0
0003C0
000700
000F00
001800
003000
000000
000000
000300
00FF00
00FE00
003E00
003C00
007C00
007800
007800
00F000
00F000
01F000
01E000
01E000
03C000
03C000
07C000
078000
070000
070000
0F0000
0E0000
0E0000
1C0000
1C0000
3C0000
380000
380000
784000
F88000
F90000
FE0000
FC0000
780000
ENDCHAR
STARTCHAR 013B
ENCODING 315
SWIDTH 630 0
DWIDTH 29 0
BBX 32 44 -3 -12
BITMAP
000FFF80
000FFF80
0001F800
0001F000
0001F000
0003E000
0003E000
0007E000
0007C000
0007C000
000F8000
000F8000
000F8000
001F0000
001F0000
003E0000
003E0000
007C0000
007C0000
007C0000
00780000
00780003
00F00006
00F0000E
00F0000C
01E0001C
01E00078
03C000F0
07C001F0
0F8007E0
7FFFFFE0
FFFFFFE0
00000000
00000000
000E0000
001F0000
003F0000
003F0000
001B0000
00070000
00060000
000C0000
00180000
00600000
ENDCHAR
STARTCHAR 013C
ENCODING 316
SWIDTH 282 0
DWIDTH 13 0
BBX 16 45 1 -12
BITMAP
0003
00FF
00FE
003E
003C
007C
0078
0078
00F0
00F0
01F0
01E0
01E0
03C0
03C0
07C0
0780
0700
0700
0F00
0E00
0E00
1C00
1C00
3C00
3800
3800
7840
F880
F900
FE00
FC00
7800
0000
0000
1800
3C00
7C00
7C00
3400
0C00
0800
1800
3000
C000
ENDCHAR
STARTCHAR 013D
ENCODING 317
SWIDTH 630 0
DWIDTH 29 0
BBX 35 33 -3 0
BITMAP
00000000C0
000FFF81E0
000FFF83E0
0001F803E0
0001F00160
0001F000E0
0003E000C0
0003E00080
0007E00100
0007C00600
0007C00000
000F800000
000F800000
000F800000
001F000000
001F000000
003E000000
003E000000
007C000000
007C000000
007C000000
0078000000
0078000300
00F0000600
00F0000E00
00F0000C00
01E0001C00
01E0007800
03C000F000
07C001F000
0F8007E000
7FFFFFE000
FFFFFFE000
ENDCHAR
STARTCHAR 013E
ENCODING 318
SWIDTH 304 0
DWIDTH 14 0
BBX 22 33 1 0
BITMAP
000338
00FF7C
00FEFC
003EFC
003C6C
007C1C
007818
007830
00F060
00F080
01F000
01E000
01E000
03C000
03C000
07C000
078000
070000
070000
0F0000
0E0000
0E0000
1C0000
1C0000
3C0000
380000
380000
784000
F88000
F90000
FE0000
FC0000
780000
ENDCHAR
STARTCHAR 013F
ENCODING 319
SWIDTH 630 0
DWIDTH 29 0
BBX 32 32 -3 0
BITMAP
000FFF80
000FFF80
0001F800
0001F000
0001F000
0003E000
0003E000
0007E000
0007C000
0007C000
000F800F
000F801F
000F801F
001F003E
001F003E
003E0000
003E0000
007C0000
007C0000
007C0000
00780000
00780003
00F00006
00F0000E
00F0000C
01E0001C
01E00078
03C000F0
07C001F0
0F8007E0
7FFFFFE0
FFFFFFE0
ENDCHAR
STARTCHAR 0140
ENCODING 320
SWIDTH 304 0
DWIDTH 14 0
BBX 16 33 1 0
BITMAP
0003
00FF
00FE
003E
003C
007C
0078
0078
00F0
00F0
01F0
01E0
01E0
03C0
03C0
07C0
078F
070F
071F
0F1F
0E00
0E00
1C00
1C00
3C00
3800
3800
7840
F880
F900
FE00
FC00
7800
ENDCHAR
STARTCHAR 0141
ENCODING 321
SWIDTH 630 0
DWIDTH 29 0
BBX 32 32 -3 0
BITMAP
000FFF80
000FFF80
0001F800
0001F000
0001F000
0003E000
0003E000
0007E000
0007C200
0007CE00
000F9C00
000FF000
000FE000
001FC000
001F0000
007E0000
00EE0000
019C0000
07BC0000
067C0000
00780000
00780003
00F00006
00F0000E
00F0000C
01E0001C
03E00078
03C000F0
07C001F0
0F8007E0
7FFFFFE0
FFFFFFE0
ENDCHAR
STARTCHAR 0142
ENCODING 322
SWIDTH 282 0
DWIDTH 13 0
BBX 17 33 0 0
BITMAP
000180
007F80
007F00
001F00
001E00
003E00
003C00
003C00
007800
007800
00F880
00F380
00F700
01FC00
01F800
03E000
07C000
0D8000
3B8000
F38000
C70000
070000
0F0000
0E0000
1E0000
1C0000
1C0000
3C2000
7C4000
7C8000
7F0000
7E0000
3C0000
ENDCHAR
STARTCHAR 0143
ENCODING 323
SWIDTH 739 0
DWIDTH 34 0
BBX 44 43 -3 0
BITMAP
00000000C000
00000003C000
00000003C000
0000000F0000
0000001E0000
0000003C0000
000000600000
000000C00000
000000000000
000000000000
000000000000
000FE0007FF0
000FE0007FE0
0007E0000F80
0003F0000E00
0003F0000E00
0003F0000C00
0003F8001C00
0007F8001800
00067C001800
000E7C003800
000E3E003000
000C3E007000
001C1F007000
00181F006000
00180F80E000
00300FC0C000
00700FC0C000
007007E08000
006007E18000
006007F10000
004003F10000
004001F30000
00C001FB0000
008001F30000
018000FF0000
018000FE0000
0380007C0000
0380003C0000
0780003C0000
0F8000180000
7FE000180000
FFE000080000
ENDCHAR
STARTCHAR 0144
ENCODING 324
SWIDTH 565 0
DWIDTH 26 0
BBX 26 33 0 0
BITMAP
000001C0
000007C0
000007C0
00000FC0
00003C00
00007800
00004000
00008000
00000000
00000000
00000000
00787C00
07F0FE00
03F1FF00
01F31F00
01E61F00
03D81E00
03B03E00
03E03C00
03403C00
03807C00
07807800
07007800
0F007000
0E007000
0E00F000
1E00E000
3C01C100
3C01C200
3C03C400
7C03FC00
7803F000
F801E000
ENDCHAR
STARTCHAR 0145
ENCODING 325
SWIDTH 739 0
DWIDTH 34 0
BBX 44 44 -3 -12
BITMAP
000FE0007FF0
000FE0007FE0
0007E0000F80
0003F0000E00
0003F0000E00
0003F0000C00
0003F8001C00
0007F8001800
00067C001800
000E7C003800
000E3E003000
000C3E007000
001C1F007000
00181F006000
00180F80E000
00300FC0C000
00700FC0C000
007007E08000
006007E18000
006007F10000
004003F10000
004001F30000
00C001FB0000
008001F30000
018000FF0000
018000FE0000
0380007C0000
0380003C0000
0780003C0000
0F8000180000
7FE000180000
FFE000080000
000000000000
000000000000
0001C0000000
0003E0000000
0007E0000000
0007E0000000
000360000000
0000E0000000
0000C0000000
000180000000
000300000000
000C00000000
ENDCHAR
STARTCHAR 0146
ENCODING 326
SWIDTH 565 0
DWIDTH 26 0
BBX 24 34 0 -12
BITMAP
00787C
07F0FE
03F1FF
01F31F
01E61F
03D81E
03B03E
03E03C
03403C
03807C
078078
070078
0F0070
0E0070
0E00F0
1E00E0
3C01C1
3C01C2
3C03C4
7C03FC
7803F0
F801E0
000000
000000
038000
03C000
07C000
07C000
02C000
01C000
018000
030000
020000
0C0000
ENDCHAR
STARTCHAR 0147
ENCODING 327
SWIDTH 739 0
DWIDTH 34 0
BBX 44 43 -3 0
BITMAP
000001000000
000000C01000
000000E06000
000000798000
000000670000
0000003F0000
0000003E0000
000000000000
000000000000
000000000000
000000000000
000FE0007FF0
000FE0007FE0
0007E0000F80
0003F0000E00
0003F0000E00
0003F0000C00
0003F8001C00
0007F8001800
00067C001800
000E7C003800
000E3E003000
000C3E007000
001C1F007000
00181F006000
00180F80E000
00300FC0C000
00700FC0C000
007007E08000
006007E18000
006007F10000
004003F10000
004001F30000
00C001FB0000
008001F30000
018000FF0000
018000FE0000
0380007C0000
0380003C0000
0780003C0000
0F8000180000
7FE000180000
FFE000080000
ENDCHAR
STARTCHAR 0148
ENCODING 328
SWIDTH 565 0
DWIDTH 26 0
BBX 28 33 0 0
BITMAP
00010000
00008010
0000C060
000071C0
00004F00
00007E00
00007C00
00000000
00000000
00000000
00000000
00787C00
07F0FE00
03F1FF00
01F31F00
01E61F00
03D81E00
03B03E00
03E03C00
03403C00
03807C00
07807800
07007800
0F007000
0E007000
0E00F000
1E00E000
3C01C100
3C01C200
3C03C400
7C03FC00
7803F000
F801E000
ENDCHAR
STARTCHAR 014A
ENCODING 330
SWIDTH 739 0
DWIDTH 34 0
BBX 44 44 -3 -12
BITMAP
000FE0007FF0
000FE0007FE0
0007E0000F80
0003F0000E00
0003F0000E00
0003F0000C00
0003F8001C00
0007F8001800
00067C003800
000E7C003800
000E3E003000
000C3E007000
001C1F007000
00181F006000
00180F80E000
00300FC0C000
00700FC0C000
007007E08000
006007E18000
006007F18000
004003F10000
004001F30000
00C001FB0000
008001F30000
018000FF0000
018000FE0000
0380007C0000
0380003C0000
0780003C0000
0F8000180000
7FE000380000
FFE000380000
000000300000
000000700000
000E00600000
001F00E00000
001F00E00000
003E00C00000
003C01800000
001C03800000
001E07000000
000F0E000000
0007FC000000
0001F0000000
ENDCHAR
STARTCHAR 014B
ENCODING 331
SWIDTH 543 0
DWIDTH 25 0
BBX 24 33 0 -11
BITMAP
00787C
07F0FE
03F1FF
03E31F
01E61F
03D81E
03B03E
03E03C
03C03C
07807C
070078
070078
0F0070
0E00F0
1E00F0
1C00E0
3C01C0
3C03C0
3C0380
780380
780780
F80780
000F80
000F00
000F00
001F00
001E00
083E00
3C7C00
387800
18F000
1FC000
070000
ENDCHAR
STARTCHAR 014C
ENCODING 332
SWIDTH 739 0
DWIDTH 34 0
BBX 31 40 4 0
BITMAP
0001FFF0
0003FFF0
00000000
00000000
00000000
00000000
00000000
00000000
0007FF00
001FFF80
007C03C0
01F000F0
03E00078
07C00078
0F80007C
1F80007C
1F00007C
3E00007C
3E00007E
3E00007E
3C00007E
7C00007E
7800007E
F800007C
F800007C
F000007C
F0000078
F00000F8
F00000F0
F00001F0
F00001E0
F00003E0
F00003C0
78000780
38001F80
3C003F00
3E007C00
1F01F800
07FFE000
01FF8000
ENDCHAR
STARTCHAR 014D
ENCODING 333
SWIDTH 500 0
DWIDTH 23 0
BBX 22 29 1 0
BITMAP
00FFFC
000000
000000
000000
000000
000000
000000
003F00
00FF80
03E1C0
07C0E0
0700F0
1E00F0
1C00F0
3C00F8
3C00F8
7800F0
7800F0
7800F0
7800F0
F800E0
F801E0
F801E0
780380
780700
780F00
381E00
1FFC00
07F000
ENDCHAR
STARTCHAR 014E
ENCODING 334
SWIDTH 739 0
DWIDTH 34 0
BBX 31 42 4 0
BITMAP
00010000
00010020
0001E1C0
0001FFC0
0000FF80
00007F80
00001E00
00000000
00000000
00000000
0007FF00
001FFF80
007C03C0
01F000F0
03E00078
07C00078
0F80007C
1F80007C
1F00007C
3E00007C
3E00007E
3E00007E
3C00007E
7C00007E
7800007E
F800007C
F800007C
F000007C
F0000078
F00000F8
F00000F0
F00001F0
F00001E0
F00003E0
F00003C0
78000780
38001F80
3C003F00
3E007C00
1F01F800
07FFE000
01FF8000
ENDCHAR
STARTCHAR 014F
ENCODING 335
SWIDTH 500 0
DWIDTH 23 0
BBX 21 32 1 0
BITMAP
004000
004008
006018
007FF0
003FE0
001FC0
000700
000000
000000
000000
003F00
00FF80
03E1C0
07C0E0
0700F0
1E00F0
1C00F0
3C00F8
3C00F8
7800F0
7800F0
7800F0
7800F0
F800E0
F801E0
F801E0
780380
780700
780F00
381E00
1FFC00
07F000
ENDCHAR
STARTCHAR 0150
ENCODING 336
SWIDTH 739 0
DWIDTH 34 0
BBX 31 43 4 0
BITMAP
0000070E
00000F1E
00001F3E
00007C78
00007060
0000E0C0
00018180
00000000
00000000
00000000
00000000
0007FF00
001FFF80
007C03C0
01F000F0
03E00078
07C00078
0F80007C
1F80007C
1F00007C
3E00007C
3E00007E
3E00007E
3C00007E
7C00007E
7800007E
F800007C
F800007C
F000007C
F0000078
F00000F8
F00000F0
F00001F0
F00001E0
F00003E0
F00003C0
78000780
38001F80
3C003F00
3E007C00
1F01F800
07FFE000
01FF8000
ENDCHAR
STARTCHAR 0151
ENCODING 337
SWIDTH 500 0
DWIDTH 23 0
BBX 25 33 1 0
BITMAP
00018380
00038780
00078F80
000F1F00
001C3800
00387000
0060C000
00000000
00000000
00000000
00000000
003F0000
00FF8000
03E1C000
07C0E000
0700F000
1E00F000
1C00F000
3C00F800
3C00F800
7800F000
7800F000
7800F000
7800F000
F800E000
F801E000
F801E000
78038000
78070000
780F0000
381E0000
1FFC0000
07F00000
ENDCHAR
STARTCHAR 0152
ENCODING 338
SWIDTH 1043 0
DWIDTH 48 0
BBX 48 32 4 0
BITMAP
0000FFFFFFFF
0007FFFFFFFF
001FC00E003F
00F8007E000F
03F0007C000E
07E0007C000E
0FC00078000E
1F800078000C
1F000078000C
3E0000F0000C
3E0000F00C08
3C0001E00C00
7C0001E00800
780001E01800
780003C03000
F80007FFF000
F00007807000
F00007807000
F0000F807000
F0000F806000
F0000F806000
F0001F0060C0
F8001F0000C0
F8003F000180
78003E000380
78003E000300
3E007C000E00
3F00FC000E00
0F80F8003C00
07E0E000FC00
01FFFFFFFC00
003FFFFFF800
ENDCHAR
STARTCHAR 0153
ENCODING 339
SWIDTH 760 0
DWIDTH 35 0
BBX 33 22 2 0
BITMAP
007E007C00
01FF01FF00
07E3878780
0F81CF0780
0F01FE0780
1C01F80780
3C01F80F00
7801F01E00
7801F03C00
7001FFE000
F001FF8000
F001C00000
F001E00000
F001E00000
F001E00000
F003E00000
F007F00000
F00FF80400
701EFC1800
783CFFF000
3FF87FE000
0FE01FC000
ENDCHAR
STARTCHAR 0154
ENCODING 340
SWIDTH 695 0
DWIDTH 32 0
BBX 34 44 -3 -1
BITMAP
0000000700
0000001F00
0000001F00
0000007C00
000000F000
000001E000
0000030000
0000060000
0000000000
0000000000
0000000000
001FFFF000
000FFFFE00
0001E03F00
0001F00780
0001F007C0
0003E007C0
0003E003C0
0007E003C0
0007C007C0
0007C00780
000F800780
000F800F00
000F801F00
001F003F00
001F007C00
003FFF8000
003807C000
007C03E000
007C03E000
007C03E000
007803F000
007801F000
00F001F000
00F001F000
00F001F000
01E001F000
03C001F000
03C001F800
07C001F800
0FC000F800
7FF800FF00
FFFC007E00
0000001000
ENDCHAR
STARTCHAR 0155
ENCODING 341
SWIDTH 413 0
DWIDTH 19 0
BBX 23 33 0 0
BITMAP
00000E
00003E
00003E
00007E
0000E0
0001C0
000300
000600
000000
000000
000000
007060
07F1F8
03F3F8
03E678
03EC78
03B070
032000
034000
07C000
078000
070000
0F0000
0E0000
0E0000
1E0000
1C0000
3C0000
3C0000
7C0000
780000
F80000
F00000
ENDCHAR
STARTCHAR 0156
ENCODING 342
SWIDTH 695 0
DWIDTH 32 0
BBX 34 44 -3 -12
BITMAP
001FFFF000
000FFFFE00
0001E03F00
0001F00780
0001F007C0
0003E007C0
0003E003C0
0007E003C0
0007C007C0
0007C00780
000F800780
000F800F00
000F801F00
001F003F00
001F007C00
003FFF8000
003807C000
007C03E000
007C03E000
007C03E000
007803F000
007801F000
00F001F000
00F001F000
00F001F000
01E001F000
03C001F000
03C001F800
07C001F800
0FC000F800
7FF800FF00
FFFC007E00
0000001000
0000000000
0001C00000
0003E00000
0007E00000
0007E00000
0003600000
0000E00000
0000C00000
0001800000
0003000000
000C000000
ENDCHAR
STARTCHAR 0157
ENCODING 343
SWIDTH 413 0
DWIDTH 19 0
BBX 25 34 -4 -12
BITMAP
00070600
007F1F80
003F3F80
003E6780
003EC780
003B0700
00320000
00340000
007C0000
00780000
00700000
00F00000
00E00000
00E00000
01E00000
01C00000
03C00000
03C00000
07C00000
07800000
0F800000
0F000000
00000000
00000000
1C000000
3E000000
7E000000
7E000000
36000000
0E000000
0C000000
18000000
30000000
C0000000
ENDCHAR
STARTCHAR 0158
ENCODING 344
SWIDTH 695 0
DWIDTH 32 0
BBX 34 44 -3 -1
BITMAP
0000080000
0000060080
0000070100
000003CE00
0000033C00
000001F800
000001F000
0000000000
0000000000
0000000000
0000000000
001FFFF000
000FFFFE00
0001E03F00
0001F00780
0001F007C0
0003E007C0
0003E003C0
0007E003C0
0007C007C0
0007C00780
000F800780
000F800F00
000F801F00
001F003F00
001F007C00
003FFF8000
003807C000
007C03E000
007C03E000
007C03E000
007803F000
007801F000
00F001F000
00F001F000
00F001F000
01E001F000
03C001F000
03C001F800
07C001F800
0FC000F800
7FF800FF00
FFFC007E00
0000001000
ENDCHAR
STARTCHAR 0159
ENCODING 345
SWIDTH 413 0
DWIDTH 19 0
BBX 25 33 0 0
BITMAP
00080000
00060080
00070300
00038E00
00037800
0001F000
0001E000
00000000
00000000
00000000
00000000
00706000
07F1F800
03F3F800
03E67800
03EC7800
03B07000
03200000
03400000
07C00000
07800000
07000000
0F000000
0E000000
0E000000
1E000000
1C000000
3C000000
3C000000
7C000000
78000000
F8000000
F0000000
ENDCHAR
STARTCHAR 015A
ENCODING 346
SWIDTH 543 0
DWIDTH 25 0
BBX 30 44 -1 -1
BITMAP
000001C0
000007C0
000007C0
00001F00
00003C00
00003800
00004000
0000C000
00000000
00000000
00000000
0007FC00
001FFF04
003E07BC
007801D8
00F000D8
00F000F8
01F000F0
01F000F0
01F00070
01F00060
01F80060
00FC0060
00FF0000
007F8000
003FC000
000FF800
0003FC00
0001FE00
0000FF00
00003F00
0C003F00
1C001F80
1C001F80
1C001F80
3C001F00
3C001F00
7E001E00
6E003E00
77003C00
E380F800
81FFE000
00FFC000
000C0000
ENDCHAR
STARTCHAR 015B
ENCODING 347
SWIDTH 369 0
DWIDTH 17 0
BBX 18 33 0 0
BITMAP
0000C0
0003C0
0003C0
0007C0
001E00
003C00
006000
00C000
000000
000000
000000
00F800
03FF00
038780
060380
0E0380
0E0780
0F0380
0F0000
07C000
07C000
03E000
03F000
01F800
00FC00
007C00
603E00
F03E00
E03C00
E03C00
F07800
79F000
1FE000
ENDCHAR
STARTCHAR 015C
ENCODING 348
SWIDTH 543 0
DWIDTH 25 0
BBX 30 42 -1 -1
BITMAP
00001F80
00003B80
000067C0
0000C3C0
000100E0
00020020
00000000
00000000
00000000
0007FC00
001FFF04
003E07BC
007801D8
00F000D8
00F000F8
01F000F0
01F000F0
01F00070
01F00060
01F80060
00FC0060
00FF0000
007F8000
003FC000
000FF800
0003FC00
0001FE00
0000FF00
00003F00
0C003F00
1C001F80
1C001F80
1C001F80
3C001F00
3C001F00
7E001E00
6E003E00
77003C00
E380F800
81FFE000
00FFC000
000C0000
ENDCHAR
STARTCHAR 015D
ENCODING 349
SWIDTH 369 0
DWIDTH 17 0
BBX 19 31 0 0
BITMAP
000F80
001F80
0073C0
00C1C0
010060
020020
000000
000000
000000
00F800
03FF00
038780
060380
0E0380
0E0780
0F0380
0F0000
07C000
07C000
03E000
03F000
01F800
00FC00
007C00
603E00
F03E00
E03C00
E03C00
F07800
79F000
1FE000
ENDCHAR
STARTCHAR 015E
ENCODING 350
SWIDTH 543 0
DWIDTH 25 0
BBX 30 41 -1 -9
BITMAP
0007FC00
001FFF04
003E07BC
007801D8
00F000D8
00F000F8
01F000F0
01F000F0
01F00070
01F00060
01F80060
00FC0060
00FF0000
007F8000
003FC000
000FF800
0003FC00
0001FE00
0000FF00
00003F00
0C003F00
1C001F80
1C001F80
1C001F80
3C001F00
3C001F00
7E001E00
6E003E00
77003C00
E380F800
81FFE000
00FFC000
006C0000
00C00000
01A00000
01F00000
01F00000
00F80000
00700000
04E00000
03C00000
ENDCHAR
STARTCHAR 015F
ENCODING 351
SWIDTH 369 0
DWIDTH 17 0
BBX 18 31 -1 -9
BITMAP
007C00
01FF80
01C3C0
0301C0
0701C0
0703C0
0781C0
078000
03E000
03E000
01F000
01F800
00FC00
007E00
003E00
301F00
781F00
701E00
701E00
783C00
3CF800
0FF000
060000
0C0000
1A0000
1E0000
1E0000
0F0000
060000
8E0000
7C0000
ENDCHAR
STARTCHAR 0160
ENCODING 352
SWIDTH 543 0
DWIDTH 25 0
BBX 30 44 -1 -1
BITMAP
00010000
0000C010
0000C060
00007380
00004F00
00003E00
00003C00
00000000
00000000
00000000
00000000
0007FC00
001FFF04
003E07BC
007801D8
00F000D8
00F000F8
01F000F0
01F000F0
01F00070
01F00060
01F80060
00FC0060
00FF0000
007F8000
003FC000
000FF800
0003FC00
0001FE00
0000FF00
00003F00
0C003F00
1C001F80
1C001F80
1C001F80
3C001F00
3C001F00
7E001E00
6E003E00
77003C00
E380F800
81FFE000
00FFC000
000C0000
ENDCHAR
STARTCHAR 0161
ENCODING 353
SWIDTH 369 0
DWIDTH 17 0
BBX 20 33 0 0
BITMAP
010000
00C010
00E060
0078C0
006780
003F00
003E00
000000
000000
000000
000000
00F800
03FF00
038780
060380
0E0380
0E0780
0F0380
0F0000
07C000
07C000
03E000
03F000
01F800
00FC00
007C00
603E00
F03E00
E03C00
E03C00
F07800
79F000
1FE000
ENDCHAR
STARTCHAR 0164
ENCODING 356
SWIDTH 630 0
DWIDTH 29 0
BBX 31 43 5 0
BITMAP
00040000
00030040
00038080
0001E700
00019E00
0000FC00
0000F800
00000000
00000000
00000000
00000000
0FFFFFFE
0FFFFFFE
1FC3C07E
3C03E03C
3807E01C
7007C018
6007C018
600F8018
400F8010
000F0030
000F0000
000F0000
001E0000
001E0000
003C0000
003C0000
00780000
00780000
00F80000
00F00000
00F00000
01F00000
01F00000
03F00000
03E00000
03E00000
07C00000
0FC00000
0FC00000
1FC00000
FFF00000
FFF00000
ENDCHAR
STARTCHAR 0165
ENCODING 357
SWIDTH 326 0
DWIDTH 15 0
BBX 20 34 2 0
BITMAP
0000E0
0001F0
0001F0
0001F0
0001B0
0001B0
000870
001860
0070C0
00F180
01E200
03E000
0FFF00
1FFF00
070000
07C000
078000
0F0000
0F0000
0F0000
0E0000
1E0000
1C0000
1C0000
3C0000
380000
780000
780000
F00000
F04000
F98000
FF0000
FE0000
7C0000
ENDCHAR
STARTCHAR 0166
ENCODING 358
SWIDTH 630 0
DWIDTH 29 0
BBX 31 32 5 0
BITMAP
0FFFFFFE
0FFFFFFE
1FC3C07E
3C03E03C
3807E01C
7007C018
6007C018
600F8018
400F8010
000F0030
000F0000
000F0000
001E0000
001E0000
003C0000
3FFFFC00
00180000
00780000
00F80000
00F00000
00F00000
01F00000
01F00000
03F00000
03E00000
03E00000
07C00000
0FC00000
0FC00000
1FC00000
FFF00000
FFF00000
ENDCHAR
STARTCHAR 0167
ENCODING 359
SWIDTH 347 0
DWIDTH 16 0
BBX 17 28 1 0
BITMAP
000400
000C00
003800
007800
00F000
01F000
07FF80
0FFF80
038000
03E000
03C000
078000
078000
078000
7FFE00
FFFE00
060000
0E0000
1E0000
1C0000
3C0000
3C0000
780000
782000
7CC000
7F8000
7F0000
3E0000
ENDCHAR
STARTCHAR 0168
ENCODING 360
SWIDTH 760 0
DWIDTH 35 0
BBX 36 43 6 -1
BITMAP
0000180000
00007E0200
0000FFFC00
00018FF800
000103F000
000201E000
0000000000
0000000000
0000000000
0000000000
3FFF00FFF0
1FFE007FE0
07E0001F00
07E0001C00
07C0001C00
07C0001800
0F80001800
0F80003800
0F80003000
1F00003000
1F00007000
1F00006000
3E00006000
3E0000E000
3E0000C000
7C0001C000
FC00018000
F800018000
F800018000
F800010000
F000030000
F000030000
F000020000
F000060000
F000060000
F0000E0000
F800380000
FC00780000
FE01F00000
7FCFE00000
1FFF800000
0FFE000000
0060000000
ENDCHAR
STARTCHAR 0169
ENCODING 361
SWIDTH 543 0
DWIDTH 25 0
BBX 25 32 2 -1
BITMAP
00060000
001F0080
001FC100
0063FE00
0041FC00
0080F800
00000000
00000000
00000000
00000000
01E03E00
1FC03C00
0FC07C00
07C07800
07807800
0F00F000
0F01F000
0E01E000
0E01E000
1E01E000
1C01C000
1C01C000
38038000
38078000
780F8000
700B0000
F0360800
F06E1000
F0DE3000
F39FE000
FF1FC000
7C0F0000
ENDCHAR
STARTCHAR 016A
ENCODING 362
SWIDTH 760 0
DWIDTH 35 0
BBX 36 41 6 -1
BITMAP
0000FFF800
0001FFF800
0000000000
0000000000
0000000000
0000000000
0000000000
0000000000
3FFF00FFF0
1FFE007FE0
07E0001F00
07E0001C00
07C0001C00
07C0001800
0F80001800
0F80003800
0F80003000
1F00003000
1F00007000
1F00006000
3E00006000
3E0000E000
3E0000C000
7C0001C000
FC00018000
F800018000
F800018000
F800010000
F000030000
F000030000
F000020000
F000060000
F000060000
F0000E0000
F800380000
FC00780000
FE01F00000
7FCFE00000
1FFF800000
0FFE000000
0060000000
ENDCHAR
STARTCHAR 016B
ENCODING 363
SWIDTH 543 0
DWIDTH 25 0
BBX 23 29 2 -1
BITMAP
007FFE
000000
000000
000000
000000
000000
000000
01E03E
1FC03C
0FC07C
07C078
078078
0F00F0
0F01F0
0E01E0
0E01E0
1E01E0
1C01C0
1C01C0
380380
380780
780F80
700B00
F03608
F06E10
F0DE30
F39FE0
FF1FC0
7C0F00
ENDCHAR
STARTCHAR 016C
ENCODING 364
SWIDTH 760 0
DWIDTH 35 0
BBX 36 43 6 -1
BITMAP
0000800000
0000801000
0000F1E000
0000FFE000
00007FC000
00003F8000
00000E0000
0000000000
0000000000
0000000000
3FFF00FFF0
1FFE007FE0
07E0001F00
07E0001C00
07C0001C00
07C0001800
0F80001800
0F80003800
0F80003000
1F00003000
1F00007000
1F00006000
3E00006000
3E0000E000
3E0000C000
7C0001C000
FC00018000
F800018000
F800018000
F800010000
F000030000
F000030000
F000020000
F000060000
F000060000
F0000E0000
F800380000
FC00780000
FE01F00000
7FCFE00000
1FFF800000
0FFE000000
0060000000
ENDCHAR
STARTCHAR 016D
ENCODING 365
SWIDTH 543 0
DWIDTH 25 0
BBX 23 32 2 -1
BITMAP
002000
002004
00300C
003FF8
001FF0
000FE0
000380
000000
000000
000000
01E03E
1FC03C
0FC07C
07C078
078078
0F00F0
0F01F0
0E01E0
0E01E0
1E01E0
1C01C0
1C01C0
380380
380780
780F80
700B00
F03608
F06E10
F0DE30
F39FE0
FF1FC0
7C0F00
ENDCHAR
STARTCHAR 016E
ENCODING 366
SWIDTH 760 0
DWIDTH 35 0
BBX 36 44 6 -1
BITMAP
00001E0000
00003F8000
0000318000
000060C000
000061C000
0000618000
0000338000
00001F0000
0000000000
0000000000
0000000000
3FFF00FFF0
1FFE007FE0
07E0001F00
07E0001C00
07C0001C00
07C0001800
0F80001800
0F80003800
0F80003000
1F00003000
1F00007000
1F00006000
3E00006000
3E0000E000
3E0000C000
7C0001C000
FC00018000
F800018000
F800018000
F800010000
F000030000
F000030000
F000020000
F000060000
F000060000
F0000E0000
F800380000
FC00780000
FE01F00000
7FCFE00000
1FFF800000
0FFE000000
0060000000
ENDCHAR
STARTCHAR 016F
ENCODING 367
SWIDTH 543 0
DWIDTH 25 0
BBX 23 33 2 -1
BITMAP
000780
000FE0
000C60
001870
001870
001860
000DE0
0007C0
000000
000000
000000
01E03E
1FC03C
0FC07C
07C078
078078
0F00F0
0F01F0
0E01E0
0E01E0
1E01E0
1C01C0
1C01C0
380380
380780
780F80
700B00
F03608
F06E10
F0DE30
F39FE0
FF1FC0
7C0F00
ENDCHAR
STARTCHAR 0170
ENCODING 368
SWIDTH 760 0
DWIDTH 35 0
BBX 36 44 6 -1
BITMAP
0000030700
0000070F00
00000F1F00
00003E7C00
0000387000
000070E000
0000C18000
0000000000
0000000000
0000000000
0000000000
3FFF00FFF0
1FFE007FE0
07E0001F00
07E0001C00
07C0001C00
07C0001800
0F80001800
0F80003800
0F80003000
1F00003000
1F00007000
1F00006000
3E00006000
3E0000E000
3E0000C000
7C0001C000
FC00018000
F800018000
F800018000
F800010000
F000030000
F000030000
F000020000
F000060000
F000060000
F0000E0000
F800380000
FC00780000
FE01F00000
7FCFE00000
1FFF800000
0FFE000000
0060000000
ENDCHAR
STARTCHAR 0171
ENCODING 369
SWIDTH 543 0
DWIDTH 25 0
BBX 26 33 2 -1
BITMAP
0001C1C0
0001C3C0
0003C7C0
00078F80
000E1C00
001C3800
00306000
00000000
00000000
00000000
00000000
01E03E00
1FC03C00
0FC07C00
07C07800
07807800
0F00F000
0F01F000
0E01E000
0E01E000
1E01E000
1C01C000
1C01C000
38038000
38078000
780F8000
700B0000
F0360800
F06E1000
F0DE3000
F39FE000
FF1FC000
7C0F0000
ENDCHAR
STARTCHAR 0172
ENCODING 370
SWIDTH 760 0
DWIDTH 35 0
BBX 36 42 6 -10
BITMAP
3FFF00FFF0
1FFE007FE0
07E0001F00
07E0001C00
07C0001C00
07C0001800
0F80001800
0F80003800
0F80003000
1F00003000
1F00007000
1F00006000
3E00006000
3E0000E000
3E0000C000
7C0001C000
FC00018000
F800018000
F800018000
F800010000
F000030000
F000030000
F000020000
F000060000
F000060000
F0000E0000
F800380000
FC00780000
FE01F00000
7FCFE00000
1FFF800000
0FFE000000
0066000000
0018000000
0030000000
0060000000
00E0000000
00C0000000
01C4000000
01FC000000
00F8000000
0020000000
ENDCHAR
STARTCHAR 0173
ENCODING 371
SWIDTH 543 0
DWIDTH 25 0
BBX 23 32 2 -10
BITMAP
01E03E
1FC03C
0FC07C
07C078
078078
0F00F0
0F01F0
0E01E0
0E01E0
1E01E0
1C01C0
1C01C0
380380
380780
780F80
700B00
F03608
F06E10
F0DE30
F39FE0
FF1FC0
7C0F00
000100
000600
001C00
003800
007000
006000
00E000
00FE00
007E00
001800
ENDCHAR
STARTCHAR 0174
ENCODING 372
SWIDTH 1000 0
DWIDTH 46 0
BBX 45 43 8 -2
BITMAP
000003F00000
000007700000
00000CF80000
000018780000
0000201C0000
000040040000
000000000000
000000000000
000000000000
FFE0FFE00FF8
7FE07FE00FF8
3F803F0003F0
1F001E000380
1F001E000380
1F001E000700
1F001E000600
1F001E000C00
1F001E001C00
1F001E003800
1F001E003000
1F801E007000
1F803E00E000
1F807E00C000
1F806E008000
0F81CE030000
0F818E030000
0F830E070000
0F860E0E0000
0F8E0E1C0000
0F8C0E180000
0F980E380000
0FB00E700000
0FF00E600000
0FE00EC00000
0F400DC00000
0F800F000000
0F800F000000
0F000E000000
0F000C000000
0E0008000000
0C0008000000
080008000000
080000000000
ENDCHAR
STARTCHAR 0175
ENCODING 373
SWIDTH 695 0
DWIDTH 32 0
BBX 27 32 5 -1
BITMAP
0003F000
0007F000
000CF800
00107800
00201C00
00400400
00000000
00000000
00000000
300600C0
F83E01C0
F81E03E0
780E01E0
780E00E0
780F00C0
780F00C0
780F0080
780F0080
780F0100
780F0100
780F0300
781E0700
783E0600
782E0C00
786E1800
798E6000
770EC000
6E1D8000
781F0000
701E0000
60180000
00100000
ENDCHAR
STARTCHAR 0176
ENCODING 374
SWIDTH 695 0
DWIDTH 32 0
BBX 34 41 6 0
BITMAP
00001F0000
00007B0000
0000E78000
0001838000
000201C000
0004004000
0000000000
0000000000
0000000000
3FFC01FFC0
1FF801FF80
0FE0003E00
07E0007800
07E0007000
03E000E000
03E0018000
03E0010000
03E0020000
01E0060000
01E00C0000
01E0180000
00F0300000
00F0E00000
00F1C00000
0077000000
006E000000
007C000000
007C000000
0078000000
0078000000
00F0000000
00F0000000
00F0000000
01E0000000
01E0000000
03E0000000
03E0000000
07E0000000
0FE0000000
FFF8000000
FFF8000000
ENDCHAR
STARTCHAR 0177
ENCODING 375
SWIDTH 521 0
DWIDTH 24 0
BBX 29 41 -6 -10
BITMAP
000003E0
000007E0
00001DF0
000030F0
00004038
00008008
00000000
00000000
00000000
00060070
001F00F8
001F00F8
000F00F8
000F0038
000F8038
000F8038
000F8070
000F8070
000F8070
000780E0
000780E0
0007C1C0
0007C180
0007C180
0007C100
0007C600
0007C600
0003CC00
0003DC00
0003B800
0003F000
0003E000
0003C000
00038000
00070000
000E0000
200C0000
F8300000
F8F00000
F7C00000
7F000000
ENDCHAR
STARTCHAR 0178
ENCODING 376
SWIDTH 695 0
DWIDTH 32 0
BBX 34 41 6 0
BITMAP
0001E0F000
0003E1F000
0007C1E000
0007C1E000
0000000000
0000000000
0000000000
0000000000
0000000000
3FFC01FFC0
1FF801FF80
0FE0003E00
07E0007800
07E0007000
03E000E000
03E0018000
03E0010000
03E0020000
01E0060000
01E00C0000
01E0180000
00F0300000
00F0E00000
00F1C00000
0077000000
006E000000
007C000000
007C000000
0078000000
0078000000
00F0000000
00F0000000
00F0000000
01E0000000
01E0000000
03E0000000
03E0000000
07E0000000
0FE0000000
FFF8000000
FFF8000000
ENDCHAR
STARTCHAR 0179
ENCODING 377
SWIDTH 608 0
DWIDTH 28 0
BBX 35 43 -2 0
BITMAP
0000000E00
0000003E00
0000003E00
000000F800
000001E000
000003C000
0000060000
00000C0000
0000000000
0000000000
0000000000
000FFFFFE0
001FFFFFC0
001FC00380
003E001F00
003C003E00
0038007E00
007000FC00
006001F800
00E003F000
00C007E000
00800FC000
00001F8000
00001F0000
00003E0000
00007C0000
0001F00000
0003E00000
0007E00000
000FC00000
001F800000
003F000000
007E001800
00FC001800
00F8003000
00F0007000
01F0006000
07C001C000
0F8003C000
1F000F8000
3C001F8000
7FFFFF0000
FFFFFF0000
ENDCHAR
STARTCHAR 017A
ENCODING 378
SWIDTH 413 0
DWIDTH 19 0
BBX 24 34 -3 -1
BITMAP
00000E
00001E
00001E
00003E
0000F0
0001E0
000300
000600
000000
000000
000000
007FFF
007FFE
00FFFC
00FFD8
01C030
0300E0
0601C0
000380
000700
000E00
001C00
003800
007000
006000
00C000
018000
070010
0EE030
1FFCE0
3FFFE0
7CFFC0
E03F80
400600
ENDCHAR
STARTCHAR 017B
ENCODING 379
SWIDTH 608 0
DWIDTH 28 0
BBX 35 41 -2 0
BITMAP
000000F000
000001F000
000003E000
000003E000
0000000000
0000000000
0000000000
0000000000
0000000000
000FFFFFE0
001FFFFFC0
001FC00380
003E001F00
003C003E00
0038007E00
007000FC00
006001F800
00E003F000
00C007E000
00800FC000
00001F8000
00001F0000
00003E0000
00007C0000
0001F00000
0003E00000
0007E00000
000FC00000
001F800000
003F000000
007E001800
00FC001800
00F8003000
00F0007000
01F0006000
07C001C000
0F8003C000
1F000F8000
3C001F8000
7FFFFF0000
FFFFFF0000
ENDCHAR
STARTCHAR 017C
ENCODING 380
SWIDTH 413 0
DWIDTH 19 0
BBX 24 32 -3 -1
BITMAP
000070
0000F0
0001E0
0001E0
000000
000000
000000
000000
000000
007FFF
007FFE
00FFFC
00FFD8
01C030
0300E0
0601C0
000380
000700
000E00
001C00
003800
007000
006000
00C000
018000
070010
0EE030
1FFCE0
3FFFE0
7CFFC0
E03F80
400600
ENDCHAR
STARTCHAR 017D
ENCODING 381
SWIDTH 608 0
DWIDTH 28 0
BBX 35 43 -2 0
BITMAP
0000100000
00000C0100
00000E0200
0000079C00
0000067800
000003F000
000003E000
0000000000
0000000000
0000000000
0000000000
000FFFFFE0
001FFFFFC0
001FC00380
003E001F00
003C003E00
0038007E00
007000FC00
006001F800
00E003F000
00C007E000
00800FC000
00001F8000
00001F0000
00003E0000
00007C0000
0001F00000
0003E00000
0007E00000
000FC00000
001F800000
003F000000
007E001800
00FC001800
00F8003000
00F0007000
01F0006000
07C001C000
0F8003C000
1F000F8000
3C001F8000
7FFFFF0000
FFFFFF0000
ENDCHAR
STARTCHAR 017E
ENCODING 382
SWIDTH 413 0
DWIDTH 19 0
BBX 25 34 -3 -1
BITMAP
00080000
00060080
00070300
0003CE00
00033800
0001F000
0001F000
00000000
00000000
00000000
00000000
007FFF00
007FFE00
00FFFC00
00FFD800
01C03000
0300E000
0601C000
00038000
00070000
000E0000
001C0000
00380000
00700000
00600000
00C00000
01800000
07001000
0EE03000
1FFCE000
3FFFE000
7CFFC000
E03F8000
40060000
ENDCHAR
STARTCHAR 0218
ENCODING 536
SWIDTH 543 0
DWIDTH 25 0
BBX 30 44 -1 -12
BITMAP
0007FC00
001FFF04
003E07BC
007801D8
00F000D8
00F000F8
01F000F0
01F000F0
01F00070
01F00060
01F80060
00FC0060
00FF0000
007F8000
003FC000
000FF800
0003FC00
0001FE00
0000FF00
00003F00
0C003F00
1C001F80
1C001F80
1C001F80
3C001F00
3C001F00
7E001E00
6E003E00
77003C00
E380F800
81FFE000
00FFC000
000C0000
00000000
00700000
00F80000
01F80000
01F80000
00D80000
00380000
00300000
00600000
00C00000
01000000
ENDCHAR
STARTCHAR 0219
ENCODING 537
SWIDTH 369 0
DWIDTH 17 0
BBX 17 34 0 -12
BITMAP
00F800
03FF00
038780
060380
0E0380
0E0780
0F0380
0F0000
07C000
07C000
03E000
03F000
01F800
00FC00
007C00
603E00
F03E00
E03C00
E03C00
F07800
79F000
1FE000
000000
000000
0C0000
1E0000
3E0000
3E0000
1A0000
060000
040000
0C0000
180000
600000
ENDCHAR
STARTCHAR 021A
ENCODING 538
SWIDTH 630 0
DWIDTH 29 0
BBX 31 44 5 -12
BITMAP
0FFFFFFE
0FFFFFFE
1FC3C07E
3C03E03C
3807E01C
7007C018
6007C018
600F8018
400F8010
000F0030
000F0000
000F0000
001E0000
001E0000
003C0000
003C0000
00780000
00780000
00F80000
00F00000
00F00000
01F00000
01F00000
03F00000
03E00000
03E00000
07C00000
0FC00000
0FC00000
1FC00000
FFF00000
FFF00000
00000000
00000000
1C000000
3E000000
7E000000
7E000000
36000000
0E000000
0C000000
18000000
30000000
40000000
ENDCHAR
STARTCHAR 021B
ENCODING 539
SWIDTH 347 0
DWIDTH 16 0
BBX 18 40 0 -12
BITMAP
000200
000600
001C00
003C00
007800
00F800
03FFC0
07FFC0
01C000
01F000
01E000
03C000
03C000
03C000
038000
078000
070000
070000
0F0000
0E0000
1E0000
1E0000
3C0000
3C1000
3E6000
3FC000
3F8000
1F0000
000000
000000
1C0000
3C0000
7C0000
7C0000
340000
0C0000
0C0000
180000
300000
C00000
ENDCHAR
STARTCHAR 02C6
ENCODING 710
SWIDTH 500 0
DWIDTH 23 0
BBX 13 6 11 25
BITMAP
03E0
07E0
1DF0
30F0
4038
8008
ENDCHAR
STARTCHAR 02C7
ENCODING 711
SWIDTH 500 0
DWIDTH 23 0
BBX 13 7 12 26
BITMAP
8000
6008
7030
38E0
3780
1F00
1E00
ENDCHAR
STARTCHAR 02D8
ENCODING 728
SWIDTH 500 0
DWIDTH 23 0
BBX 12 7 12 25
BITMAP
8000
8010
C030
FFE0
7FC0
3F80
0E00
ENDCHAR
STARTCHAR 02D9
ENCODING 729
SWIDTH 500 0
DWIDTH 23 0
BBX 5 4 16 27
BITMAP
78
78
F0
F0
ENDCHAR
STARTCHAR 02DA
ENCODING 730
SWIDTH 500 0
DWIDTH 23 0
BBX 9 8 13 25
BITMAP
3C00
7F00
6300
C380
C380
C300
6F00
3E00
ENDCHAR
STARTCHAR 02DB
ENCODING 731
SWIDTH 500 0
DWIDTH 23 0
BBX 8 10 0 -10
BITMAP
03
04
1C
38
70
60
E2
FE
7C
18
ENDCHAR
STARTCHAR 02DC
ENCODING 732
SWIDTH 500 0
DWIDTH 23 0
BBX 17 6 10 26
BITMAP
060000
1F0080
1FC100
63FE00
41FC00
80F800
ENDCHAR
STARTCHAR 02DD
ENCODING 733
SWIDTH 500 0
DWIDTH 23 0
BBX 16 7 12 26
BITMAP
0707
070F
0F1F
1E3E
3870
70E0
C180
ENDCHAR
STARTCHAR 1E80
ENCODING 7808
SWIDTH 1000 0
DWIDTH 46 0
BBX 45 45 8 -2
BITMAP
000070000000
000078000000
000078000000
00003E000000
00000E000000
000007000000
000001800000
000000800000
000000000000
000000000000
000000000000
FFE0FFE00FF8
7FE07FE00FF8
3F803F0003F0
1F001E000380
1F001E000380
1F001E000700
1F001E000600
1F001E000C00
1F001E001C00
1F001E003800
1F001E003000
1F801E007000
1F803E00E000
1F807E00C000
1F806E008000
0F81CE030000
0F818E030000
0F830E070000
0F860E0E0000
0F8E0E1C0000
0F8C0E180000
0F980E380000
0FB00E700000
0FF00E600000
0FE00EC00000
0F400DC00000
0F800F000000
0F800F000000
0F000E000000
0F000C000000
0E0008000000
0C0008000000
080008000000
080000000000
ENDCHAR
STARTCHAR 1E81
ENCODING 7809
SWIDTH 695 0
DWIDTH 32 0
BBX 27 34 5 -1
BITMAP
00700000
00700000
00780000
007C0000
000E0000
00070000
00018000
00008000
00000000
00000000
00000000
300600C0
F83E01C0
F81E03E0
780E01E0
780E00E0
780F00C0
780F00C0
780F0080
780F0080
780F0100
780F0100
780F0300
781E0700
783E0600
782E0C00
786E1800
798E6000
770EC000
6E1D8000
781F0000
701E0000
60180000
00100000
ENDCHAR
STARTCHAR 1E82
ENCODING 7810
SWIDTH 1000 0
DWIDTH 46 0
BBX 45 45 8 -2
BITMAP
000000380000
000000F80000
000000F80000
000003E00000
000007800000
000007000000
000008000000
000018000000
000000000000
000000000000
000000000000
FFE0FFE00FF8
7FE07FE00FF8
3F803F0003F0
1F001E000380
1F001E000380
1F001E000700
1F001E000600
1F001E000C00
1F001E001C00
1F001E003800
1F001E003000
1F801E007000
1F803E00E000
1F807E00C000
1F806E008000
0F81CE030000
0F818E030000
0F830E070000
0F860E0E0000
0F8E0E1C0000
0F8C0E180000
0F980E380000
0FB00E700000
0FF00E600000
0FE00EC00000
0F400DC00000
0F800F000000
0F800F000000
0F000E000000
0F000C000000
0E0008000000
0C0008000000
080008000000
080000000000
ENDCHAR
STARTCHAR 1E83
ENCODING 7811
SWIDTH 695 0
DWIDTH 32 0
BBX 27 34 5 -1
BITMAP
00003800
0000F800
0000F800
0001F800
00078000
000F0000
00080000
00100000
00000000
00000000
00000000
300600C0
F83E01C0
F81E03E0
780E01E0
780E00E0
780F00C0
780F00C0
780F0080
780F0080
780F0100
780F0100
780F0300
781E0700
783E0600
782E0C00
786E1800
798E6000
770EC000
6E1D8000
781F0000
701E0000
60180000
00100000
ENDCHAR
STARTCHAR 1E84
ENCODING 7812
SWIDTH 1000 0
DWIDTH 46 0
BBX 45 43 8 -2
BITMAP
00001C0F0000
00003C1F0000
0000783E0000
0000783E0000
000000000000
000000000000
000000000000
000000000000
000000000000
FFE0FFE00FF8
7FE07FE00FF8
3F803F0003F0
1F001E000380
1F001E000380
1F001E000700
1F001E000600
1F001E000C00
1F001E001C00
1F001E003800
1F001E003000
1F801E007000
1F803E00E000
1F807E00C000
1F806E008000
0F81CE030000
0F818E030000
0F830E070000
0F860E0E0000
0F8E0E1C0000
0F8C0E180000
0F980E380000
0FB00E700000
0FF00E600000
0FE00EC00000
0F400DC00000
0F800F000000
0F800F000000
0F000E000000
0F000C000000
0E0008000000
0C0008000000
080008000000
080000000000
ENDCHAR
STARTCHAR 1E85
ENCODING 7813
SWIDTH 695 0
DWIDTH 32 0
BBX 27 32 5 -1
BITMAP
001C0F00
003C1F00
00783E00
00783E00
00000000
00000000
00000000
00000000
00000000
300600C0
F83E01C0
F81E03E0
780E01E0
780E00E0
780F00C0
780F00C0
780F0080
780F0080
780F0100
780F0100
780F0300
781E0700
783E0600
782E0C00
786E1800
798E6000
770EC000
6E1D8000
781F0000
701E0000
60180000
00100000
ENDCHAR
STARTCHAR 1EF2
ENCODING 7922
SWIDTH 695 0
DWIDTH 32 0
BBX 34 43 6 0
BITMAP
0007000000
0007800000
0007C00000
0003F00000
0000F00000
0000380000
00000C0000
0000040000
0000000000
0000000000
0000000000
3FFC01FFC0
1FF801FF80
0FE0003E00
07E0007800
07E0007000
03E000E000
03E0018000
03E0010000
03E0020000
01E0060000
01E00C0000
01E0180000
00F0300000
00F0E00000
00F1C00000
0077000000
006E000000
007C000000
007C000000
0078000000
0078000000
00F0000000
00F0000000
00F0000000
01E0000000
01E0000000
03E0000000
03E0000000
07E0000000
0FE0000000
FFF8000000
FFF8000000
ENDCHAR
STARTCHAR 1EF3
ENCODING 7923
SWIDTH 521 0
DWIDTH 24 0
BBX 29 43 -6 -10
BITMAP
0000E000
0000F000
0000F800
0000FC00
00001E00
00000600
00000100
00000100
00000000
00000000
00000000
00060070
001F00F8
001F00F8
000F00F8
000F0038
000F8038
000F8038
000F8070
000F8070
000F8070
000780E0
000780E0
0007C1C0
0007C180
0007C180
0007C100
0007C600
0007C600
0003CC00
0003DC00
0003B800
0003F000
0003E000
0003C000
00038000
00070000
000E0000
200C0000
F8300000
F8F00000
F7C00000
7F000000
ENDCHAR
STARTCHAR 2013
ENCODING 8211
SWIDTH 521 0
DWIDTH 24 0
BBX 21 2 3 14
BITMAP
7FFFF8
FFFFF8
ENDCHAR
STARTCHAR 2014
ENCODING 8212
SWIDTH 652 0
DWIDTH 30 0
BBX 27 2 3 14
BITMAP
7FFFFFE0
FFFFFFE0
ENDCHAR
STARTCHAR 2018
ENCODING 8216
SWIDTH 239 0
DWIDTH 11 0
BBX 10 11 7 22
BITMAP
00C0
0300
0C00
1800
6000
6000
FC00
FC00
FC00
FC00
7800
ENDCHAR
STARTCHAR 2019
ENCODING 8217
SWIDTH 239 0
DWIDTH 11 0
BBX 10 11 6 21
BITMAP
0780
0FC0
0FC0
0D80
0180
0300
0300
0600
1800
3000
8000
ENDCHAR
STARTCHAR 201A
ENCODING 8218
SWIDTH 239 0
DWIDTH 11 0
BBX 8 12 -3 -6
BITMAP
0E
1F
3F
3F
3F
1B
06
06
0C
18
30
C0
ENDCHAR
STARTCHAR 201C
ENCODING 8220
SWIDTH 391 0
DWIDTH 18 0
BBX 17 11 7 22
BITMAP
00C180
030600
0C1800
183000
604000
604000
DCF800
FCF800
FCF800
FCF800
787000
ENDCHAR
STARTCHAR 201D
ENCODING 8221
SWIDTH 391 0
DWIDTH 18 0
BBX 17 11 6 21
BITMAP
078F00
0FDF80
0FDF80
0D9D00
018300
030600
030600
060C00
181800
302000
808000
ENDCHAR
STARTCHAR 201E
ENCODING 8222
SWIDTH 391 0
DWIDTH 18 0
BBX 17 11 -5 -6
BITMAP
078780
07CF80
07CF80
07CF80
058E80
018180
030300
030300
0E1E00
183000
C08000
ENDCHAR
STARTCHAR 2020
ENCODING 8224
SWIDTH 565 0
DWIDTH 26 0
BBX 21 42 5 -10
BITMAP
000300
000780
000780
000700
000600
000C00
000C00
1E0800
1FC800
1FF030
0017F8
0010F8
001078
003000
003000
00F000
01F000
01F000
01E000
01E000
03C000
03C000
038000
038000
070000
070000
0E0000
0C0000
0C0000
080000
180000
100000
100000
300000
200000
200000
400000
400000
000000
000000
000000
800000
ENDCHAR
STARTCHAR 2021
ENCODING 8225
SWIDTH 565 0
DWIDTH 26 0
BBX 26 43 0 -11
BITMAP
00001800
00003C00
00003C00
00003800
00003000
00006000
00006000
00F04000
00FE4000
00FF8180
0000BFC0
000087C0
000083C0
00018000
00038000
00078000
00078000
00070000
00060000
00040000
00040000
000C0000
00080000
00180000
00180000
00380000
00F80000
00F80000
00F00000
40E00000
F0C00000
FC800000
FE878000
01BF8000
010F8000
01038000
03000000
03000000
06000000
06000000
0E000000
0C000000
04000000
ENDCHAR
STARTCHAR 2022
ENCODING 8226
SWIDTH 282 0
DWIDTH 13 0
BBX 9 6 4 13
BITMAP
3F80
3F80
7F00
7F00
7E00
FE00
ENDCHAR
STARTCHAR 2026
ENCODING 8230
SWIDTH 717 0
DWIDTH 33 0
BBX 29 6 -1 0
BITMAP
3E07C0F8
7E0FC1F8
7E0FC1F8
7C0F81F0
FC1F83F0
F81F03E0
ENDCHAR
STARTCHAR 2039
ENCODING 8249
SWIDTH 369 0
DWIDTH 17 0
BBX 15 20 2 1
BITMAP
0002
0004
0018
0030
01E0
03C0
0F80
0F00
3E00
7C00
F800
7000
7800
3800
1800
0800
0C00
0C00
0C00
0400
ENDCHAR
STARTCHAR 203A
ENCODING 8250
SWIDTH 369 0
DWIDTH 17 0
BBX 16 21 -1 0
BITMAP
0040
0040
0060
0060
0038
0038
003C
003C
003E
003F
007F
007C
00F8
01F0
01C0
0600
0E00
1800
3000
6000
8000
ENDCHAR
STARTCHAR 2044
ENCODING 8260
SWIDTH 586 0
DWIDTH 27 0
BBX 28 32 1 0
BITMAP
00000030
00000070
00000060
00000180
00000300
00000700
00000E00
00000C00
00001800
00003000
00006000
0000E000
0000C000
00008000
00010000
00060000
000E0000
001C0000
00180000
00300000
00600000
00C00000
01C00000
01800000
03000000
06000000
08000000
18000000
18000000
30000000
60000000
C0000000
ENDCHAR
STARTCHAR 20AC
ENCODING 8364
SWIDTH 630 0
DWIDTH 29 0
BBX 32 32 1 0
BITMAP
0000FF80
0003FFC0
0007E0E3
003F0036
003E0036
007C001E
00FC001C
01F8001C
01F0000C
03F00008
03E00008
07E00008
07C00000
07C00000
3FFFFF00
47800000
07800000
FFFFF000
FFFFE000
07800000
0F800000
07800000
07800000
07800000
07C00000
07C00000
07E00100
03F00200
01F80C00
00FC3800
007FF000
001FC000
ENDCHAR
STARTCHAR 2122
ENCODING 8482
SWIDTH 869 0
DWIDTH 40 0
BBX 41 17 6 15
BITMAP
1FFFDF803F80
3E67C7803E00
306185803C00
40E18D80F800
41E10981B800
01C009813000
01C019823000
038011866000
0380318C6000
03802198E000
07002190C000
070061A0C000
0F004161C000
0E0041C1C000
0E00C181C000
FF87E21FC000
FF07E21FC000
ENDCHAR
STARTCHAR 2157
ENCODING 8535
SWIDTH 739 0
DWIDTH 34 0
BBX 30 32 5 0
BITMAP
07FE0060
07FC00E0
0FE800C0
10300100
00C00300
01800600
03000E00
07C01C00
07E01800
00F03000
00F06000
00F0C000
C0F1C000
C0E18000
80E3000C
C78C0FF0
7E081BF0
00181000
00101000
00302000
00602000
00C07F00
01807F00
0380CF80
03000380
060001C0
18030180
38070180
70060300
60060700
40030E00
8001FC00
ENDCHAR
STARTCHAR 2212
ENCODING 8722
SWIDTH 521 0
DWIDTH 24 0
BBX 21 2 3 14
BITMAP
7FFFF8
FFFFF8
ENDCHAR
STARTCHAR F6BE
ENCODING 63166
SWIDTH 260 0
DWIDTH 12 0
BBX 23 33 -10 -11
BITMAP
00001E
0001FC
0000FC
0000F8
0000F8
0000F0
0000F0
0000E0
0000E0
0001E0
0001C0
0003C0
0003C0
000380
000780
000700
000F00
000F00
001F00
001E00
001E00
003E00
003C00
007C00
007800
007800
00F800
20F000
F1E000
E3C000
E78000
7F0000
1C0000
ENDCHAR
STARTCHAR F6C3
ENCODING 63171
SWIDTH 500 0
DWIDTH 23 0
BBX 6 10 2 -12
BITMAP
18
3C
7C
7C
3C
0C
08
10
30
C0
ENDCHAR
STARTCHAR FB01
ENCODING 64257
SWIDTH 608 0
DWIDTH 28 0
BBX 41 44 -10 -11
BITMAP
000000180000
0000007F8000
000000E3C780
000001C1CF00
00000787DE00
000007039E00
00000F000000
00000F000000
00001E000000
00001E000000
00003E000000
0001FFF03800
0001FFE7F800
00007C03F800
00007801F000
0000F801F000
0000F001E000
0000F003C000
0000E003C000
0001E007C000
0001E0078000
0001C0078000
0003C00F8000
0003800F0000
0003801F0000
0007801E0000
0007001E0000
000F001C1000
000F003C2000
001F003C4000
001E003F8000
001E003F0000
003E001E0000
003C00000000
003C00000000
007800000000
007800000000
007800000000
20F000000000
F1E000000000
E3C000000000
E78000000000
7F0000000000
080000000000
ENDCHAR
STARTCHAR FB02
ENCODING 64258
SWIDTH 608 0
DWIDTH 28 0
BBX 41 44 -10 -11
BITMAP
000000180180
0000007FBF80
000000E3FF00
000001C1CF00
00000787CE00
000007039E00
00000F001E00
00000F001E00
00001E003C00
00001E003C00
00003E007C00
0001FFF07800
0001FFE07800
00007C00F000
00007800F000
0000F801F000
0000F001E000
0000F003C000
0000E003C000
0001E007C000
0001E0078000
0001C0078000
0003C00F0000
0003800F0000
0003801F0000
0007801E0000
0007001E0000
000F001C1000
000F003C2000
001F003C4000
001E003F8000
001E003F0000
003E001E0000
003C00000000
003C00000000
007800000000
007800000000
007800000000
20F000000000
F1E000000000
E3C000000000
E78000000000
7F0000000000
080000000000
ENDCHAR
ENDFONT
